<mxfile host="Electron" modified="2023-12-12T00:35:48.532Z" agent="Mozilla/5.0 (X11; Linux x86_64) AppleWebKit/537.36 (KHTML, like Gecko) draw.io/22.1.2 Chrome/114.0.5735.289 Electron/25.9.4 Safari/537.36" etag="hySZ9qA3wClqe2lx72oS" version="22.1.2" type="device">
  <diagram name="План этажа" id="АЛУ_а4">
    <mxGraphModel dx="330" dy="-976" grid="1" gridSize="10" guides="0" tooltips="1" connect="1" arrows="1" fold="1" page="1" pageScale="1" pageWidth="827" pageHeight="1169" background="none" math="0" shadow="0">
      <root>
        <mxCell id="0" />
        <mxCell id="1" style="" parent="0" />
        <mxCell id="aFtEZMVyqw2GVVvH-SNo-197" value="" style="group;movable=1;resizable=1;rotatable=1;deletable=1;editable=1;locked=0;connectable=1;" parent="1" vertex="1" connectable="0">
          <mxGeometry x="80" y="1183" width="740" height="948" as="geometry" />
        </mxCell>
        <UserObject label="" tags="Фон" id="21">
          <mxCell style="vsdxID=47;fillColor=none;gradientColor=none;shape=stencil(nZBLDoAgDERP0z3SIyjew0SURgSD+Lu9kMZoXLhwN9O+tukAlrNpJg1SzDH4QW/URgNYgZTkjA4UkwJUgGXng+6DX1zLfmoymdXo17xh5zmRJ6Q42BWCfc2oJfdAr+Yv+AP9Cb7OJ3H/2JG1HNGz/84klThPVCc=);strokeColor=#000000;strokeWidth=4;points=[];labelBackgroundColor=none;rounded=0;html=1;whiteSpace=wrap;movable=1;resizable=1;rotatable=1;deletable=1;editable=1;locked=0;connectable=1;" parent="aFtEZMVyqw2GVVvH-SNo-197" vertex="1">
            <mxGeometry y="-3" width="740" height="951" as="geometry" />
          </mxCell>
        </UserObject>
        <UserObject label="" tags="Фон" id="2">
          <mxCell style="vsdxID=2;fillColor=#FFFFFF;gradientColor=none;shape=stencil(nY9LDoAgDERP0z3SI/i5BwkoRAUC+Lu9kGo0Lt3NtK/tFLCOWngFnMUU3Kg2I5MGbIBzY7UKJmUF2ALWvQtqCG6xkrwXhSxqdmvZsNNcxViZ4ewgT64jdDL2hf4E7wsXmsWThd549765c4l+xvYE);strokeColor=#000000;strokeWidth=4;spacingTop=-1;spacingBottom=-1;spacingLeft=-1;spacingRight=-1;points=[];labelBackgroundColor=#ffffff;rounded=0;html=1;whiteSpace=wrap;movable=1;resizable=1;rotatable=1;deletable=1;editable=1;locked=0;connectable=1;" parent="1" vertex="1">
            <mxGeometry x="80" y="2130" width="740" height="199" as="geometry" />
          </mxCell>
        </UserObject>
        <UserObject label="" tags="Фон" id="24">
          <mxCell style="vsdxID=3;edgeStyle=none;startArrow=none;endArrow=none;startSize=5;endSize=5;strokeWidth=4;strokeColor=#000000;spacingTop=-1;spacingBottom=-1;spacingLeft=-1;spacingRight=-1;verticalAlign=middle;html=1;labelBackgroundColor=#ffffff;rounded=0;movable=1;resizable=1;rotatable=1;deletable=1;editable=1;locked=0;connectable=1;" parent="1" edge="1">
            <mxGeometry relative="1" as="geometry">
              <Array as="points" />
              <mxPoint x="820" y="2190" as="sourcePoint" />
              <mxPoint x="340" y="2190" as="targetPoint" />
            </mxGeometry>
          </mxCell>
        </UserObject>
        <UserObject label="" tags="Фон" id="25">
          <mxCell style="vsdxID=4;edgeStyle=none;startArrow=none;endArrow=none;startSize=5;endSize=5;strokeWidth=4;strokeColor=#000000;spacingTop=-1;spacingBottom=-1;spacingLeft=-1;spacingRight=-1;verticalAlign=middle;html=1;labelBackgroundColor=#ffffff;rounded=0;movable=1;resizable=1;rotatable=1;deletable=1;editable=1;locked=0;connectable=1;" parent="1" edge="1">
            <mxGeometry relative="1" as="geometry">
              <Array as="points" />
              <mxPoint x="340" y="2130" as="sourcePoint" />
              <mxPoint x="340" y="2330" as="targetPoint" />
            </mxGeometry>
          </mxCell>
        </UserObject>
        <UserObject label="" tags="Фон" id="26">
          <mxCell style="vsdxID=5;edgeStyle=none;startArrow=none;endArrow=none;startSize=5;endSize=5;strokeWidth=4;strokeColor=#000000;spacingTop=-1;spacingBottom=-1;spacingLeft=-1;spacingRight=-1;verticalAlign=middle;html=1;labelBackgroundColor=#ffffff;rounded=0;movable=1;resizable=1;rotatable=1;deletable=1;editable=1;locked=0;connectable=1;" parent="1" edge="1">
            <mxGeometry relative="1" as="geometry">
              <Array as="points" />
              <mxPoint x="820" y="2290" as="sourcePoint" />
              <mxPoint x="340" y="2290" as="targetPoint" />
            </mxGeometry>
          </mxCell>
        </UserObject>
        <UserObject label="" tags="Фон" id="27">
          <mxCell style="vsdxID=6;edgeStyle=none;startArrow=none;endArrow=none;startSize=5;endSize=5;strokeWidth=4;strokeColor=#000000;spacingTop=-1;spacingBottom=-1;spacingLeft=-1;spacingRight=-1;verticalAlign=middle;html=1;labelBackgroundColor=#ffffff;rounded=0;movable=1;resizable=1;rotatable=1;deletable=1;editable=1;locked=0;connectable=1;" parent="1" edge="1">
            <mxGeometry relative="1" as="geometry">
              <Array as="points" />
              <mxPoint x="620" y="2190" as="sourcePoint" />
              <mxPoint x="620" y="2330" as="targetPoint" />
            </mxGeometry>
          </mxCell>
        </UserObject>
        <UserObject label="" tags="Фон" id="28">
          <mxCell style="vsdxID=7;edgeStyle=none;startArrow=none;endArrow=none;startSize=5;endSize=5;strokeWidth=4;strokeColor=#000000;spacingTop=-1;spacingBottom=-1;spacingLeft=-1;spacingRight=-1;verticalAlign=middle;html=1;labelBackgroundColor=#ffffff;rounded=0;movable=1;resizable=1;rotatable=1;deletable=1;editable=1;locked=0;connectable=1;" parent="1" edge="1">
            <mxGeometry relative="1" as="geometry">
              <mxPoint as="offset" />
              <Array as="points" />
              <mxPoint x="620" y="2210" as="sourcePoint" />
              <mxPoint x="820" y="2210" as="targetPoint" />
            </mxGeometry>
          </mxCell>
        </UserObject>
        <UserObject label="" tags="Фон" id="29">
          <mxCell style="vsdxID=8;edgeStyle=none;startArrow=none;endArrow=none;startSize=5;endSize=5;strokeWidth=4;strokeColor=#000000;spacingTop=-1;spacingBottom=-1;spacingLeft=-1;spacingRight=-1;verticalAlign=middle;html=1;labelBackgroundColor=#ffffff;rounded=0;movable=1;resizable=1;rotatable=1;deletable=1;editable=1;locked=0;connectable=1;" parent="1" edge="1">
            <mxGeometry relative="1" as="geometry">
              <mxPoint as="offset" />
              <Array as="points" />
              <mxPoint x="620" y="2270" as="sourcePoint" />
              <mxPoint x="820" y="2270" as="targetPoint" />
            </mxGeometry>
          </mxCell>
        </UserObject>
        <UserObject label="" tags="Фон" id="30">
          <mxCell style="vsdxID=9;edgeStyle=none;startArrow=none;endArrow=none;startSize=5;endSize=5;strokeWidth=4;strokeColor=#000000;spacingTop=-1;spacingBottom=-1;spacingLeft=-1;spacingRight=-1;verticalAlign=middle;html=1;labelBackgroundColor=#ffffff;rounded=0;movable=1;resizable=1;rotatable=1;deletable=1;editable=1;locked=0;connectable=1;" parent="1" edge="1">
            <mxGeometry relative="1" as="geometry">
              <Array as="points" />
              <mxPoint x="680" y="2190" as="sourcePoint" />
              <mxPoint x="680" y="2270" as="targetPoint" />
            </mxGeometry>
          </mxCell>
        </UserObject>
        <UserObject label="" tags="Фон" id="31">
          <mxCell style="vsdxID=10;edgeStyle=none;startArrow=none;endArrow=none;startSize=5;endSize=5;strokeColor=#000000;spacingTop=-1;spacingBottom=-1;spacingLeft=-1;spacingRight=-1;verticalAlign=middle;html=1;labelBackgroundColor=#ffffff;rounded=0;movable=1;resizable=1;rotatable=1;deletable=1;editable=1;locked=0;connectable=1;" parent="1" edge="1">
            <mxGeometry relative="1" as="geometry">
              <Array as="points" />
              <mxPoint x="640" y="2210" as="sourcePoint" />
              <mxPoint x="640" y="2270" as="targetPoint" />
            </mxGeometry>
          </mxCell>
        </UserObject>
        <UserObject label="" tags="Фон" id="32">
          <mxCell style="vsdxID=11;edgeStyle=none;startArrow=none;endArrow=none;startSize=5;endSize=5;strokeColor=#000000;spacingTop=-1;spacingBottom=-1;spacingLeft=-1;spacingRight=-1;verticalAlign=middle;html=1;labelBackgroundColor=#ffffff;rounded=0;movable=1;resizable=1;rotatable=1;deletable=1;editable=1;locked=0;connectable=1;" parent="1" edge="1">
            <mxGeometry relative="1" as="geometry">
              <Array as="points" />
              <mxPoint x="660" y="2210" as="sourcePoint" />
              <mxPoint x="660" y="2270" as="targetPoint" />
            </mxGeometry>
          </mxCell>
        </UserObject>
        <UserObject label="" tags="Фон" id="33">
          <mxCell style="vsdxID=12;edgeStyle=none;startArrow=none;endArrow=none;startSize=5;endSize=5;strokeWidth=4;strokeColor=#000000;spacingTop=-1;spacingBottom=-1;spacingLeft=-1;spacingRight=-1;verticalAlign=middle;html=1;labelBackgroundColor=#ffffff;rounded=0;movable=1;resizable=1;rotatable=1;deletable=1;editable=1;locked=0;connectable=1;" parent="1" edge="1">
            <mxGeometry relative="1" as="geometry">
              <Array as="points" />
              <mxPoint x="700" y="2270" as="sourcePoint" />
              <mxPoint x="700" y="2290" as="targetPoint" />
            </mxGeometry>
          </mxCell>
        </UserObject>
        <UserObject label="" tags="Фон" id="34">
          <mxCell style="vsdxID=13;edgeStyle=none;startArrow=none;endArrow=none;startSize=5;endSize=5;strokeWidth=4;strokeColor=#000000;spacingTop=-1;spacingBottom=-1;spacingLeft=-1;spacingRight=-1;verticalAlign=middle;html=1;labelBackgroundColor=#ffffff;rounded=0;movable=1;resizable=1;rotatable=1;deletable=1;editable=1;locked=0;connectable=1;" parent="1" edge="1">
            <mxGeometry relative="1" as="geometry">
              <Array as="points" />
              <mxPoint x="750" y="2190" as="sourcePoint" />
              <mxPoint x="750" y="2270" as="targetPoint" />
            </mxGeometry>
          </mxCell>
        </UserObject>
        <UserObject label="" tags="Фон" id="35">
          <mxCell style="vsdxID=14;edgeStyle=none;startArrow=none;endArrow=none;startSize=5;endSize=5;strokeWidth=4;strokeColor=#000000;spacingTop=-1;spacingBottom=-1;spacingLeft=-1;spacingRight=-1;verticalAlign=middle;html=1;labelBackgroundColor=#ffffff;rounded=0;movable=1;resizable=1;rotatable=1;deletable=1;editable=1;locked=0;connectable=1;" parent="1" edge="1">
            <mxGeometry relative="1" as="geometry">
              <Array as="points" />
              <mxPoint x="300" y="2130" as="sourcePoint" />
              <mxPoint x="300" y="2330" as="targetPoint" />
            </mxGeometry>
          </mxCell>
        </UserObject>
        <UserObject label="" tags="Фон" id="36">
          <mxCell style="vsdxID=15;edgeStyle=none;startArrow=none;endArrow=none;startSize=5;endSize=5;strokeWidth=4;strokeColor=#000000;spacingTop=-1;spacingBottom=-1;spacingLeft=-1;spacingRight=-1;verticalAlign=middle;html=1;labelBackgroundColor=#ffffff;rounded=0;movable=1;resizable=1;rotatable=1;deletable=1;editable=1;locked=0;connectable=1;" parent="1" edge="1">
            <mxGeometry relative="1" as="geometry">
              <Array as="points" />
              <mxPoint x="240" y="2130" as="sourcePoint" />
              <mxPoint x="240" y="2330" as="targetPoint" />
            </mxGeometry>
          </mxCell>
        </UserObject>
        <UserObject label="" tags="Фон" id="37">
          <mxCell style="vsdxID=16;edgeStyle=none;startArrow=none;endArrow=none;startSize=5;endSize=5;strokeWidth=4;strokeColor=#000000;spacingTop=-1;spacingBottom=-1;spacingLeft=-1;spacingRight=-1;verticalAlign=middle;html=1;labelBackgroundColor=#ffffff;rounded=0;movable=1;resizable=1;rotatable=1;deletable=1;editable=1;locked=0;connectable=1;" parent="1" edge="1">
            <mxGeometry relative="1" as="geometry">
              <Array as="points" />
              <mxPoint x="148" y="2130" as="sourcePoint" />
              <mxPoint x="148" y="2330" as="targetPoint" />
            </mxGeometry>
          </mxCell>
        </UserObject>
        <UserObject label="" tags="Фон" id="38">
          <mxCell style="vsdxID=17;edgeStyle=none;startArrow=none;endArrow=none;startSize=5;endSize=5;strokeColor=#000000;spacingTop=-1;spacingBottom=-1;spacingLeft=-1;spacingRight=-1;verticalAlign=middle;html=1;labelBackgroundColor=#ffffff;rounded=0;movable=1;resizable=1;rotatable=1;deletable=1;editable=1;locked=0;connectable=1;" parent="1" edge="1">
            <mxGeometry relative="1" as="geometry">
              <mxPoint as="offset" />
              <Array as="points" />
              <mxPoint x="80" y="2150" as="sourcePoint" />
              <mxPoint x="340" y="2150" as="targetPoint" />
            </mxGeometry>
          </mxCell>
        </UserObject>
        <UserObject label="" tags="Фон" id="39">
          <mxCell style="vsdxID=18;edgeStyle=none;startArrow=none;endArrow=none;startSize=5;endSize=5;strokeColor=#000000;spacingTop=-1;spacingBottom=-1;spacingLeft=-1;spacingRight=-1;verticalAlign=middle;html=1;labelBackgroundColor=#ffffff;rounded=0;movable=1;resizable=1;rotatable=1;deletable=1;editable=1;locked=0;connectable=1;" parent="1" edge="1">
            <mxGeometry relative="1" as="geometry">
              <mxPoint as="offset" />
              <Array as="points" />
              <mxPoint x="80" y="2170" as="sourcePoint" />
              <mxPoint x="340" y="2170" as="targetPoint" />
            </mxGeometry>
          </mxCell>
        </UserObject>
        <UserObject label="" tags="Фон" id="40">
          <mxCell style="vsdxID=19;edgeStyle=none;startArrow=none;endArrow=none;startSize=5;endSize=5;strokeColor=#000000;spacingTop=-1;spacingBottom=-1;spacingLeft=-1;spacingRight=-1;verticalAlign=middle;html=1;labelBackgroundColor=#ffffff;rounded=0;movable=1;resizable=1;rotatable=1;deletable=1;editable=1;locked=0;connectable=1;" parent="1" edge="1">
            <mxGeometry relative="1" as="geometry">
              <mxPoint as="offset" />
              <Array as="points" />
              <mxPoint x="80" y="2190" as="sourcePoint" />
              <mxPoint x="340" y="2190" as="targetPoint" />
            </mxGeometry>
          </mxCell>
        </UserObject>
        <UserObject label="" tags="Фон" id="41">
          <mxCell style="vsdxID=20;edgeStyle=none;startArrow=none;endArrow=none;startSize=5;endSize=5;strokeWidth=4;strokeColor=#000000;spacingTop=-1;spacingBottom=-1;spacingLeft=-1;spacingRight=-1;verticalAlign=middle;html=1;labelBackgroundColor=#ffffff;rounded=0;movable=1;resizable=1;rotatable=1;deletable=1;editable=1;locked=0;connectable=1;" parent="1" edge="1">
            <mxGeometry relative="1" as="geometry">
              <mxPoint as="offset" />
              <Array as="points" />
              <mxPoint x="80" y="2210" as="sourcePoint" />
              <mxPoint x="340" y="2210" as="targetPoint" />
            </mxGeometry>
          </mxCell>
        </UserObject>
        <UserObject label="" tags="Фон" id="42">
          <mxCell style="vsdxID=21;edgeStyle=none;startArrow=none;endArrow=none;startSize=5;endSize=5;strokeWidth=4;strokeColor=#000000;spacingTop=-1;spacingBottom=-1;spacingLeft=-1;spacingRight=-1;verticalAlign=middle;html=1;labelBackgroundColor=#ffffff;rounded=0;movable=1;resizable=1;rotatable=1;deletable=1;editable=1;locked=0;connectable=1;" parent="1" edge="1">
            <mxGeometry relative="1" as="geometry">
              <mxPoint as="offset" />
              <Array as="points" />
              <mxPoint x="80" y="2230" as="sourcePoint" />
              <mxPoint x="340" y="2230" as="targetPoint" />
            </mxGeometry>
          </mxCell>
        </UserObject>
        <UserObject label="" tags="Фон" id="43">
          <mxCell style="vsdxID=22;edgeStyle=none;startArrow=none;endArrow=none;startSize=5;endSize=5;strokeColor=#000000;spacingTop=-1;spacingBottom=-1;spacingLeft=-1;spacingRight=-1;verticalAlign=middle;html=1;labelBackgroundColor=#ffffff;rounded=0;movable=1;resizable=1;rotatable=1;deletable=1;editable=1;locked=0;connectable=1;" parent="1" edge="1">
            <mxGeometry relative="1" as="geometry">
              <mxPoint as="offset" />
              <Array as="points" />
              <mxPoint x="80" y="2250" as="sourcePoint" />
              <mxPoint x="340" y="2250" as="targetPoint" />
            </mxGeometry>
          </mxCell>
        </UserObject>
        <UserObject label="" tags="Фон" id="44">
          <mxCell style="vsdxID=23;edgeStyle=none;startArrow=none;endArrow=none;startSize=5;endSize=5;strokeColor=#000000;spacingTop=-1;spacingBottom=-1;spacingLeft=-1;spacingRight=-1;verticalAlign=middle;html=1;labelBackgroundColor=#ffffff;rounded=0;movable=1;resizable=1;rotatable=1;deletable=1;editable=1;locked=0;connectable=1;" parent="1" edge="1">
            <mxGeometry relative="1" as="geometry">
              <mxPoint as="offset" />
              <Array as="points" />
              <mxPoint x="80" y="2270" as="sourcePoint" />
              <mxPoint x="340" y="2270" as="targetPoint" />
            </mxGeometry>
          </mxCell>
        </UserObject>
        <UserObject label="" tags="Фон" id="45">
          <mxCell style="vsdxID=24;edgeStyle=none;startArrow=none;endArrow=none;startSize=5;endSize=5;strokeColor=#000000;spacingTop=-1;spacingBottom=-1;spacingLeft=-1;spacingRight=-1;verticalAlign=middle;html=1;labelBackgroundColor=#ffffff;rounded=0;movable=1;resizable=1;rotatable=1;deletable=1;editable=1;locked=0;connectable=1;" parent="1" edge="1">
            <mxGeometry relative="1" as="geometry">
              <mxPoint as="offset" />
              <Array as="points" />
              <mxPoint x="80" y="2290" as="sourcePoint" />
              <mxPoint x="340" y="2290" as="targetPoint" />
            </mxGeometry>
          </mxCell>
        </UserObject>
        <UserObject label="" tags="Фон" id="46">
          <mxCell style="vsdxID=25;edgeStyle=none;startArrow=none;endArrow=none;startSize=5;endSize=5;strokeColor=#000000;spacingTop=-1;spacingBottom=-1;spacingLeft=-1;spacingRight=-1;verticalAlign=middle;html=1;labelBackgroundColor=#ffffff;rounded=0;movable=1;resizable=1;rotatable=1;deletable=1;editable=1;locked=0;connectable=1;" parent="1" edge="1">
            <mxGeometry relative="1" as="geometry">
              <mxPoint as="offset" />
              <Array as="points" />
              <mxPoint x="80" y="2310" as="sourcePoint" />
              <mxPoint x="340" y="2310" as="targetPoint" />
            </mxGeometry>
          </mxCell>
        </UserObject>
        <UserObject label="" tags="Фон" id="47">
          <mxCell style="vsdxID=26;edgeStyle=none;startArrow=none;endArrow=none;startSize=5;endSize=5;strokeColor=#000000;spacingTop=-1;spacingBottom=-1;spacingLeft=-1;spacingRight=-1;verticalAlign=middle;html=1;labelBackgroundColor=#ffffff;rounded=0;movable=1;resizable=1;rotatable=1;deletable=1;editable=1;locked=0;connectable=1;" parent="1" edge="1">
            <mxGeometry relative="1" as="geometry">
              <mxPoint as="offset" />
              <Array as="points" />
              <mxPoint x="80" y="2330" as="sourcePoint" />
              <mxPoint x="340" y="2330" as="targetPoint" />
            </mxGeometry>
          </mxCell>
        </UserObject>
        <UserObject label="" tags="Фон" id="48">
          <mxCell style="vsdxID=27;edgeStyle=none;startArrow=none;endArrow=none;startSize=5;endSize=5;strokeWidth=4;strokeColor=#000000;spacingTop=-1;spacingBottom=-1;spacingLeft=-1;spacingRight=-1;verticalAlign=middle;html=1;labelBackgroundColor=#ffffff;rounded=0;movable=1;resizable=1;rotatable=1;deletable=1;editable=1;locked=0;connectable=1;" parent="1" edge="1">
            <mxGeometry relative="1" as="geometry">
              <Array as="points" />
              <mxPoint x="108" y="2130" as="sourcePoint" />
              <mxPoint x="108" y="2230" as="targetPoint" />
            </mxGeometry>
          </mxCell>
        </UserObject>
        <UserObject label="&lt;div style=&quot;font-size: 1px&quot;&gt;&lt;font style=&quot;font-size:11.29px;font-family:Arial;color:#000000;direction:ltr;letter-spacing:0px;line-height:120%;opacity:1&quot;&gt;&lt;i&gt;№ документа&lt;br/&gt;&lt;/i&gt;&lt;/font&gt;&lt;/div&gt;" tags="Фон" id="3">
          <mxCell style="verticalAlign=middle;align=center;overflow=width;vsdxID=28;fillColor=none;gradientColor=none;shape=stencil(nZBLDoAgDERP0z3SIyjew0SURgSD+Lu9kMZoXLhwN9O+tukAlrNpJg1SzDH4QW/URgNYgZTkjA4UkwJUgGXng+6DX1zLfmoymdXo17xh5zmRJ6Q42BWCfc2oJfdAr+Yv+AP9Cb7OJ3H/2JG1HNGz/84klThPVCc=);strokeColor=none;strokeWidth=4;spacingTop=-1;spacingBottom=-1;spacingLeft=-1;spacingRight=-1;points=[];labelBackgroundColor=none;rounded=0;html=1;whiteSpace=wrap;movable=1;resizable=1;rotatable=1;deletable=1;editable=1;locked=0;connectable=1;" parent="1" vertex="1">
            <mxGeometry x="150" y="2212" width="88" height="16" as="geometry" />
          </mxCell>
        </UserObject>
        <UserObject label="&lt;div style=&quot;font-size: 1px&quot;&gt;&lt;font style=&quot;font-size:11.29px;font-family:Arial;color:#000000;direction:ltr;letter-spacing:0px;line-height:120%;opacity:1&quot;&gt;&lt;i&gt;Подпись&lt;br/&gt;&lt;/i&gt;&lt;/font&gt;&lt;/div&gt;" tags="Фон" id="4">
          <mxCell style="verticalAlign=middle;align=center;overflow=width;vsdxID=29;fillColor=none;gradientColor=none;shape=stencil(nZBLDoAgDERP0z3SIyjew0SURgSD+Lu9kMZoXLhwN9O+tukAlrNpJg1SzDH4QW/URgNYgZTkjA4UkwJUgGXng+6DX1zLfmoymdXo17xh5zmRJ6Q42BWCfc2oJfdAr+Yv+AP9Cb7OJ3H/2JG1HNGz/84klThPVCc=);strokeColor=none;strokeWidth=4;spacingTop=-1;spacingBottom=-1;spacingLeft=-1;spacingRight=-1;points=[];labelBackgroundColor=none;rounded=0;html=1;whiteSpace=wrap;movable=1;resizable=1;rotatable=1;deletable=1;editable=1;locked=0;connectable=1;" parent="1" vertex="1">
            <mxGeometry x="242" y="2212" width="56" height="16" as="geometry" />
          </mxCell>
        </UserObject>
        <UserObject label="&lt;div style=&quot;font-size: 1px&quot;&gt;&lt;font style=&quot;font-size:11.29px;font-family:Arial;color:#000000;direction:ltr;letter-spacing:0px;line-height:120%;opacity:1&quot;&gt;&lt;i&gt;Дата&lt;br/&gt;&lt;/i&gt;&lt;/font&gt;&lt;/div&gt;" tags="Фон" id="5">
          <mxCell style="verticalAlign=middle;align=center;overflow=width;vsdxID=30;fillColor=none;gradientColor=none;shape=stencil(nZBLDoAgDERP0z3SIyjew0SURgSD+Lu9kMZoXLhwN9O+tukAlrNpJg1SzDH4QW/URgNYgZTkjA4UkwJUgGXng+6DX1zLfmoymdXo17xh5zmRJ6Q42BWCfc2oJfdAr+Yv+AP9Cb7OJ3H/2JG1HNGz/84klThPVCc=);strokeColor=none;strokeWidth=4;spacingTop=-1;spacingBottom=-1;spacingLeft=-1;spacingRight=-1;points=[];labelBackgroundColor=none;rounded=0;html=1;whiteSpace=wrap;movable=1;resizable=1;rotatable=1;deletable=1;editable=1;locked=0;connectable=1;" parent="1" vertex="1">
            <mxGeometry x="302" y="2212" width="36" height="16" as="geometry" />
          </mxCell>
        </UserObject>
        <UserObject label="&lt;div style=&quot;font-size: 1px&quot;&gt;&lt;font style=&quot;font-size:11.29px;font-family:Arial;color:#000000;direction:ltr;letter-spacing:0px;line-height:120%;opacity:1&quot;&gt;Лит.&lt;br/&gt;&lt;/font&gt;&lt;/div&gt;" tags="Фон" id="6">
          <mxCell style="verticalAlign=middle;align=center;overflow=width;vsdxID=31;fillColor=none;gradientColor=none;shape=stencil(nZBLDoAgDERP0z3SIyjew0SURgSD+Lu9kMZoXLhwN9O+tukAlrNpJg1SzDH4QW/URgNYgZTkjA4UkwJUgGXng+6DX1zLfmoymdXo17xh5zmRJ6Q42BWCfc2oJfdAr+Yv+AP9Cb7OJ3H/2JG1HNGz/84klThPVCc=);strokeColor=none;strokeWidth=4;spacingTop=-1;spacingBottom=-1;spacingLeft=-1;spacingRight=-1;points=[];labelBackgroundColor=none;rounded=0;html=1;whiteSpace=wrap;movable=1;resizable=1;rotatable=1;deletable=1;editable=1;locked=0;connectable=1;" parent="1" vertex="1">
            <mxGeometry x="622" y="2192" width="56" height="16" as="geometry" />
          </mxCell>
        </UserObject>
        <UserObject label="&lt;div style=&quot;font-size: 1px&quot;&gt;&lt;font style=&quot;font-size:11.29px;font-family:Arial;color:#000000;direction:ltr;letter-spacing:0px;line-height:120%;opacity:1&quot;&gt;&lt;i&gt;Масса&lt;br/&gt;&lt;/i&gt;&lt;/font&gt;&lt;/div&gt;" tags="Фон" id="7">
          <mxCell style="verticalAlign=middle;align=center;overflow=width;vsdxID=32;fillColor=none;gradientColor=none;shape=stencil(nZBLDoAgDERP0z3SIyjew0SURgSD+Lu9kMZoXLhwN9O+tukAlrNpJg1SzDH4QW/URgNYgZTkjA4UkwJUgGXng+6DX1zLfmoymdXo17xh5zmRJ6Q42BWCfc2oJfdAr+Yv+AP9Cb7OJ3H/2JG1HNGz/84klThPVCc=);strokeColor=none;strokeWidth=4;spacingTop=-1;spacingBottom=-1;spacingLeft=-1;spacingRight=-1;points=[];labelBackgroundColor=none;rounded=0;html=1;whiteSpace=wrap;movable=1;resizable=1;rotatable=1;deletable=1;editable=1;locked=0;connectable=1;" parent="1" vertex="1">
            <mxGeometry x="682" y="2192" width="66" height="16" as="geometry" />
          </mxCell>
        </UserObject>
        <UserObject label="&lt;div style=&quot;font-size: 1px&quot;&gt;&lt;font style=&quot;font-size:11.29px;font-family:Arial;color:#000000;direction:ltr;letter-spacing:0px;line-height:120%;opacity:1&quot;&gt;&lt;i&gt;Масштаб&lt;br/&gt;&lt;/i&gt;&lt;/font&gt;&lt;/div&gt;" tags="Фон" id="8">
          <mxCell style="verticalAlign=middle;align=center;overflow=width;vsdxID=33;fillColor=none;gradientColor=none;shape=stencil(nZBLDoAgDERP0z3SIyjew0SURgSD+Lu9kMZoXLhwN9O+tukAlrNpJg1SzDH4QW/URgNYgZTkjA4UkwJUgGXng+6DX1zLfmoymdXo17xh5zmRJ6Q42BWCfc2oJfdAr+Yv+AP9Cb7OJ3H/2JG1HNGz/84klThPVCc=);strokeColor=none;strokeWidth=4;spacingTop=-1;spacingBottom=-1;spacingLeft=-1;spacingRight=-1;points=[];labelBackgroundColor=none;rounded=0;html=1;whiteSpace=wrap;movable=1;resizable=1;rotatable=1;deletable=1;editable=1;locked=0;connectable=1;" parent="1" vertex="1">
            <mxGeometry x="752" y="2192" width="66" height="16" as="geometry" />
          </mxCell>
        </UserObject>
        <UserObject label="&lt;div style=&quot;font-size: 1px&quot;&gt;&lt;p style=&quot;text-align:center;margin-left:0;margin-right:0;margin-top:0px;margin-bottom:0px;text-indent:0;vertical-align:middle;direction:rtl;&quot;&gt;&lt;font style=&quot;font-size:33.87px;font-family:Arial;color:#000000;direction:ltr;letter-spacing:0px;line-height:120%;opacity:1&quot;&gt;&lt;i&gt;ГУИР.400201.080 С3&lt;br&gt;&lt;/i&gt;&lt;/font&gt;&lt;/p&gt;&lt;/div&gt;" tags="Фон" id="9">
          <mxCell style="verticalAlign=middle;align=center;overflow=width;vsdxID=34;fillColor=none;gradientColor=none;shape=stencil(nZBLDoAgDERP0z3SIyjew0SURgSD+Lu9kMZoXLhwN9O+tukAlrNpJg1SzDH4QW/URgNYgZTkjA4UkwJUgGXng+6DX1zLfmoymdXo17xh5zmRJ6Q42BWCfc2oJfdAr+Yv+AP9Cb7OJ3H/2JG1HNGz/84klThPVCc=);strokeColor=none;spacingTop=-1;spacingBottom=-1;spacingLeft=-1;spacingRight=-1;points=[];labelBackgroundColor=none;rounded=0;html=1;whiteSpace=wrap;movable=1;resizable=1;rotatable=1;deletable=1;editable=1;locked=0;connectable=1;" parent="1" vertex="1">
            <mxGeometry x="341" y="2128" width="478" height="60" as="geometry" />
          </mxCell>
        </UserObject>
        <UserObject label="&lt;div style=&quot;font-size: 1px&quot;&gt;&lt;p style=&quot;text-align:left;margin-left:0;margin-right:0;margin-top:0px;margin-bottom:0px;text-indent:0;vertical-align:middle;direction:ltr;&quot;&gt;&lt;font style=&quot;font-size:11.29px;font-family:Arial;color:#000000;direction:ltr;letter-spacing:0px;line-height:120%;opacity:1&quot;&gt;&lt;i&gt;Лист&lt;/i&gt;&lt;/font&gt;&lt;font style=&quot;font-size:11.29px;font-family:Arial;color:#000000;direction:ltr;letter-spacing:0px;line-height:120%;opacity:1&quot;&gt;&lt;i&gt; &lt;/i&gt;&lt;/font&gt;&lt;font style=&quot;font-size:11.29px;font-family:Arial;color:#000000;direction:ltr;letter-spacing:0px;line-height:120%;opacity:1&quot;&gt;&lt;i&gt;&#x9;&lt;br/&gt;&lt;/i&gt;&lt;/font&gt;&lt;/p&gt;&lt;/div&gt;" tags="Фон" id="10">
          <mxCell style="verticalAlign=middle;align=left;overflow=width;vsdxID=35;fillColor=none;gradientColor=none;shape=stencil(nZBLDoAgDERP0z3SIyjew0SURgSD+Lu9kMZoXLhwN9O+tukAlrNpJg1SzDH4QW/URgNYgZTkjA4UkwJUgGXng+6DX1zLfmoymdXo17xh5zmRJ6Q42BWCfc2oJfdAr+Yv+AP9Cb7OJ3H/2JG1HNGz/84klThPVCc=);strokeColor=none;strokeWidth=4;spacingTop=-1;spacingBottom=-1;spacingLeft=-1;spacingRight=-1;points=[];labelBackgroundColor=none;rounded=0;html=1;whiteSpace=wrap;movable=1;resizable=1;rotatable=1;deletable=1;editable=1;locked=0;connectable=1;" parent="1" vertex="1">
            <mxGeometry x="624" y="2272" width="76" height="16" as="geometry" />
          </mxCell>
        </UserObject>
        <UserObject label="&lt;div style=&quot;font-size: 1px&quot;&gt;&lt;p style=&quot;text-align:left;margin-left:0;margin-right:0;margin-top:0px;margin-bottom:0px;text-indent:0;vertical-align:middle;direction:ltr;&quot;&gt;&lt;font style=&quot;font-size:11.29px;font-family:Arial;color:#000000;direction:ltr;letter-spacing:0px;line-height:120%;opacity:1&quot;&gt;&lt;i&gt;Листов             1&lt;/i&gt;&lt;/font&gt;&lt;font style=&quot;font-size:11.29px;font-family:Arial;color:#000000;direction:ltr;letter-spacing:0px;line-height:120%;opacity:1&quot;&gt;&lt;i&gt;&lt;br/&gt;&lt;/i&gt;&lt;/font&gt;&lt;/p&gt;&lt;/div&gt;" tags="Фон" id="11">
          <mxCell style="verticalAlign=middle;align=left;overflow=width;vsdxID=36;fillColor=none;gradientColor=none;shape=stencil(nZBLDoAgDERP0z3SIyjew0SURgSD+Lu9kMZoXLhwN9O+tukAlrNpJg1SzDH4QW/URgNYgZTkjA4UkwJUgGXng+6DX1zLfmoymdXo17xh5zmRJ6Q42BWCfc2oJfdAr+Yv+AP9Cb7OJ3H/2JG1HNGz/84klThPVCc=);strokeColor=none;strokeWidth=4;spacingTop=-1;spacingBottom=-1;spacingLeft=-1;spacingRight=-1;points=[];labelBackgroundColor=none;rounded=0;html=1;whiteSpace=wrap;movable=1;resizable=1;rotatable=1;deletable=1;editable=1;locked=0;connectable=1;" parent="1" vertex="1">
            <mxGeometry x="703" y="2272" width="116" height="16" as="geometry" />
          </mxCell>
        </UserObject>
        <UserObject label="&lt;div style=&quot;font-size: 1px&quot;&gt;&lt;font style=&quot;font-size:19.76px;font-family:Arial;color:#000000;direction:ltr;letter-spacing:0px;line-height:120%;opacity:1&quot;&gt;&lt;i&gt;У&lt;br/&gt;&lt;/i&gt;&lt;/font&gt;&lt;/div&gt;" tags="Фон" id="12">
          <mxCell style="verticalAlign=middle;align=center;overflow=width;vsdxID=37;fillColor=none;gradientColor=none;shape=stencil(nZBLDoAgDERP0z3SIyjew0SURgSD+Lu9kMZoXLhwN9O+tukAlrNpJg1SzDH4QW/URgNYgZTkjA4UkwJUgGXng+6DX1zLfmoymdXo17xh5zmRJ6Q42BWCfc2oJfdAr+Yv+AP9Cb7OJ3H/2JG1HNGz/84klThPVCc=);strokeColor=none;strokeWidth=4;spacingTop=-1;spacingBottom=-1;spacingLeft=-1;spacingRight=-1;points=[];labelBackgroundColor=none;rounded=0;html=1;whiteSpace=wrap;movable=1;resizable=1;rotatable=1;deletable=1;editable=1;locked=0;connectable=1;" parent="1" vertex="1">
            <mxGeometry x="640" y="2221" width="20" height="40" as="geometry" />
          </mxCell>
        </UserObject>
        <UserObject label="&lt;div style=&quot;font-size: 1px&quot;&gt;&lt;font style=&quot;font-size:19.76px;font-family:Arial;color:#000000;direction:ltr;letter-spacing:0px;line-height:120%;opacity:1&quot;&gt;&lt;i&gt;ЭВМ, гр. 050503&lt;br&gt;&lt;/i&gt;&lt;/font&gt;&lt;/div&gt;" tags="Фон" id="13">
          <mxCell style="verticalAlign=middle;align=center;overflow=width;vsdxID=38;fillColor=none;gradientColor=none;shape=stencil(nZBLDoAgDERP0z3SIyjew0SURgSD+Lu9kMZoXLhwN9O+tukAlrNpJg1SzDH4QW/URgNYgZTkjA4UkwJUgGXng+6DX1zLfmoymdXo17xh5zmRJ6Q42BWCfc2oJfdAr+Yv+AP9Cb7OJ3H/2JG1HNGz/84klThPVCc=);strokeColor=none;strokeWidth=4;spacingTop=-1;spacingBottom=-1;spacingLeft=-1;spacingRight=-1;points=[];labelBackgroundColor=none;rounded=0;html=1;whiteSpace=wrap;movable=1;resizable=1;rotatable=1;deletable=1;editable=1;locked=0;connectable=1;" parent="1" vertex="1">
            <mxGeometry x="622" y="2290" width="198" height="40" as="geometry" />
          </mxCell>
        </UserObject>
        <UserObject label="&lt;div style=&quot;font-size: 1px&quot;&gt;&lt;font style=&quot;font-size:11.29px;font-family:Arial;color:#000000;direction:ltr;letter-spacing:0px;line-height:120%;opacity:1&quot;&gt;&lt;i&gt;Изм&lt;br/&gt;&lt;/i&gt;&lt;/font&gt;&lt;/div&gt;" tags="Фон" id="14">
          <mxCell style="verticalAlign=middle;align=center;overflow=width;vsdxID=39;fillColor=none;gradientColor=none;shape=stencil(nZBLDoAgDERP0z3SIyjew0SURgSD+Lu9kMZoXLhwN9O+tukAlrNpJg1SzDH4QW/URgNYgZTkjA4UkwJUgGXng+6DX1zLfmoymdXo17xh5zmRJ6Q42BWCfc2oJfdAr+Yv+AP9Cb7OJ3H/2JG1HNGz/84klThPVCc=);strokeColor=none;strokeWidth=4;spacingTop=-1;spacingBottom=-1;spacingLeft=-1;spacingRight=-1;points=[];labelBackgroundColor=none;rounded=0;html=1;whiteSpace=wrap;movable=1;resizable=1;rotatable=1;deletable=1;editable=1;locked=0;connectable=1;" parent="1" vertex="1">
            <mxGeometry x="80" y="2212" width="28" height="16" as="geometry" />
          </mxCell>
        </UserObject>
        <UserObject label="&lt;div style=&quot;font-size: 1px&quot;&gt;&lt;font style=&quot;font-size:11.29px;font-family:Arial;color:#000000;direction:ltr;letter-spacing:0px;line-height:120%;opacity:1&quot;&gt;&lt;i&gt;Лист&lt;br/&gt;&lt;/i&gt;&lt;/font&gt;&lt;/div&gt;" tags="Фон" id="15">
          <mxCell style="verticalAlign=middle;align=center;overflow=width;vsdxID=40;fillColor=none;gradientColor=none;shape=stencil(nZBLDoAgDERP0z3SIyjew0SURgSD+Lu9kMZoXLhwN9O+tukAlrNpJg1SzDH4QW/URgNYgZTkjA4UkwJUgGXng+6DX1zLfmoymdXo17xh5zmRJ6Q42BWCfc2oJfdAr+Yv+AP9Cb7OJ3H/2JG1HNGz/84klThPVCc=);strokeColor=none;strokeWidth=4;spacingTop=-1;spacingBottom=-1;spacingLeft=-1;spacingRight=-1;points=[];labelBackgroundColor=none;rounded=0;html=1;whiteSpace=wrap;movable=1;resizable=1;rotatable=1;deletable=1;editable=1;locked=0;connectable=1;" parent="1" vertex="1">
            <mxGeometry x="109" y="2212" width="36" height="16" as="geometry" />
          </mxCell>
        </UserObject>
        <UserObject label="&lt;div style=&quot;&quot;&gt;&lt;p style=&quot;text-align: left; margin: 0px; text-indent: 0px; vertical-align: middle; direction: rtl;&quot;&gt;&lt;font style=&quot;font-family: Arial; color: rgb(0, 0, 0); direction: ltr; letter-spacing: 0px; line-height: 120%; opacity: 1;&quot;&gt;&lt;i style=&quot;&quot;&gt;&lt;font style=&quot;font-size: 14px;&quot;&gt;Сенкевич&lt;/font&gt;&lt;br&gt;&lt;/i&gt;&lt;/font&gt;&lt;/p&gt;&lt;/div&gt;" tags="Фон" id="16">
          <mxCell style="verticalAlign=middle;align=right;overflow=width;vsdxID=41;fillColor=none;gradientColor=none;shape=stencil(nZBLDoAgDERP0z3SIyjew0SURgSD+Lu9kMZoXLhwN9O+tukAlrNpJg1SzDH4QW/URgNYgZTkjA4UkwJUgGXng+6DX1zLfmoymdXo17xh5zmRJ6Q42BWCfc2oJfdAr+Yv+AP9Cb7OJ3H/2JG1HNGz/84klThPVCc=);strokeColor=none;strokeWidth=4;spacingTop=-1;spacingBottom=-1;spacingLeft=-1;spacingRight=-1;points=[];labelBackgroundColor=none;rounded=0;html=1;whiteSpace=wrap;movable=1;resizable=1;rotatable=1;deletable=1;editable=1;locked=0;connectable=1;" parent="1" vertex="1">
            <mxGeometry x="152" y="2229" width="120" height="23" as="geometry" />
          </mxCell>
        </UserObject>
        <UserObject label="&lt;div style=&quot;&quot;&gt;&lt;p style=&quot;text-align: left; margin: 0px; text-indent: 0px; vertical-align: middle; direction: rtl;&quot;&gt;&lt;font style=&quot;font-family: Arial; color: rgb(0, 0, 0); direction: ltr; letter-spacing: 0px; line-height: 120%; opacity: 1;&quot;&gt;&lt;i style=&quot;&quot;&gt;&lt;font style=&quot;font-size: 14px;&quot;&gt;Русакович&lt;/font&gt;&lt;br&gt;&lt;/i&gt;&lt;/font&gt;&lt;/p&gt;&lt;/div&gt;" tags="Фон" id="19">
          <mxCell style="verticalAlign=middle;align=center;overflow=width;vsdxID=44;fillColor=none;gradientColor=none;shape=stencil(nZBLDoAgDERP0z3SIyjew0SURgSD+Lu9kMZoXLhwN9O+tukAlrNpJg1SzDH4QW/URgNYgZTkjA4UkwJUgGXng+6DX1zLfmoymdXo17xh5zmRJ6Q42BWCfc2oJfdAr+Yv+AP9Cb7OJ3H/2JG1HNGz/84klThPVCc=);strokeColor=none;strokeWidth=4;spacingTop=-1;spacingBottom=-1;spacingLeft=-1;spacingRight=-1;points=[];labelBackgroundColor=none;rounded=0;html=1;whiteSpace=wrap;movable=1;resizable=1;rotatable=1;deletable=1;editable=1;locked=0;connectable=1;" parent="1" vertex="1">
            <mxGeometry x="152" y="2250" width="86" height="20" as="geometry" />
          </mxCell>
        </UserObject>
        <UserObject label="&lt;div style=&quot;font-size: 1px&quot;&gt;&lt;p style=&quot;text-align:center;margin-left:0;margin-right:0;margin-top:0px;margin-bottom:0px;text-indent:0;vertical-align:middle;direction:rtl;&quot;&gt;&lt;font style=&quot;font-size:19.76px;font-family:Arial;color:#000000;direction:ltr;letter-spacing:0px;line-height:120%;opacity:1&quot;&gt;&lt;i&gt;Схема СКС. План этажа&lt;br/&gt;&lt;/i&gt;&lt;/font&gt;&lt;/p&gt;&lt;/div&gt;" tags="Фон" id="20">
          <mxCell style="verticalAlign=middle;align=center;overflow=width;vsdxID=45;fillColor=none;gradientColor=none;shape=stencil(nZBLDoAgDERP0z3SIyjew0SURgSD+Lu9kMZoXLhwN9O+tukAlrNpJg1SzDH4QW/URgNYgZTkjA4UkwJUgGXng+6DX1zLfmoymdXo17xh5zmRJ6Q42BWCfc2oJfdAr+Yv+AP9Cb7OJ3H/2JG1HNGz/84klThPVCc=);strokeColor=none;spacingTop=-1;spacingBottom=-1;spacingLeft=-1;spacingRight=-1;points=[];labelBackgroundColor=none;rounded=0;html=1;whiteSpace=wrap;movable=1;resizable=1;rotatable=1;deletable=1;editable=1;locked=0;connectable=1;" parent="1" vertex="1">
            <mxGeometry x="340" y="2190" width="272" height="100" as="geometry" />
          </mxCell>
        </UserObject>
        <UserObject label="" tags="Фон" id="49">
          <mxCell style="vsdxID=46;edgeStyle=none;startArrow=none;endArrow=none;startSize=5;endSize=5;strokeWidth=4;spacingTop=0;spacingBottom=0;spacingLeft=0;spacingRight=0;verticalAlign=middle;html=1;labelBackgroundColor=#ffffff;rounded=0;movable=1;resizable=1;rotatable=1;deletable=1;editable=1;locked=0;connectable=1;" parent="1" edge="1">
            <mxGeometry relative="1" as="geometry">
              <Array as="points" />
              <mxPoint x="80" y="2330" as="sourcePoint" />
              <mxPoint x="820" y="2330" as="targetPoint" />
            </mxGeometry>
          </mxCell>
        </UserObject>
        <UserObject label="&lt;div style=&quot;font-size: 1px&quot;&gt;&lt;p style=&quot;text-align:center;margin-left:0;margin-right:0;margin-top:0px;margin-bottom:0px;text-indent:0;vertical-align:middle;direction:rtl;&quot;&gt;&lt;font style=&quot;font-size:19.76px;font-family:Arial;color:#000000;direction:ltr;letter-spacing:0px;line-height:120%;opacity:1&quot;&gt;&lt;i&gt;1:200&lt;br&gt;&lt;/i&gt;&lt;/font&gt;&lt;/p&gt;&lt;/div&gt;" tags="Фон" id="22">
          <mxCell style="verticalAlign=middle;align=center;overflow=width;vsdxID=48;fillColor=none;gradientColor=none;shape=stencil(nZBLDoAgDERP0z3SIyjew0SURgSD+Lu9kMZoXLhwN9O+tukAlrNpJg1SzDH4QW/URgNYgZTkjA4UkwJUgGXng+6DX1zLfmoymdXo17xh5zmRJ6Q42BWCfc2oJfdAr+Yv+AP9Cb7OJ3H/2JG1HNGz/84klThPVCc=);strokeColor=none;strokeWidth=4;spacingTop=-1;spacingBottom=-1;spacingLeft=-1;spacingRight=-1;points=[];labelBackgroundColor=none;rounded=0;html=1;whiteSpace=wrap;movable=1;resizable=1;rotatable=1;deletable=1;editable=1;locked=0;connectable=1;" parent="1" vertex="1">
            <mxGeometry x="752" y="2221" width="65" height="38" as="geometry" />
          </mxCell>
        </UserObject>
        <UserObject label="" tags="Фон" id="23">
          <mxCell style="vsdxID=1;edgeStyle=none;startArrow=none;endArrow=none;startSize=5;endSize=5;strokeWidth=4;spacingTop=0;spacingBottom=0;spacingLeft=0;spacingRight=0;verticalAlign=middle;html=1;labelBackgroundColor=#ffffff;rounded=0;movable=1;resizable=1;rotatable=1;deletable=1;editable=1;locked=0;connectable=1;" parent="1" edge="1">
            <mxGeometry relative="1" as="geometry">
              <Array as="points" />
              <mxPoint x="820" y="2110" as="sourcePoint" />
              <mxPoint x="820" y="2330" as="targetPoint" />
            </mxGeometry>
          </mxCell>
        </UserObject>
        <mxCell id="eBoRxPN_u-8wkZOiGEBF-51" value="&lt;font size=&quot;1&quot; face=&quot;Arial&quot;&gt;&lt;i style=&quot;font-size: 14px;&quot;&gt;Разраб.&lt;/i&gt;&lt;/font&gt;" style="text;strokeColor=none;align=left;fillColor=none;html=1;verticalAlign=middle;whiteSpace=wrap;rounded=0;movable=1;resizable=1;rotatable=1;deletable=1;editable=1;locked=0;connectable=1;" parent="1" vertex="1">
          <mxGeometry x="82" y="2230" width="60" height="20" as="geometry" />
        </mxCell>
        <mxCell id="eBoRxPN_u-8wkZOiGEBF-52" value="&lt;font size=&quot;1&quot; face=&quot;Arial&quot;&gt;&lt;i style=&quot;font-size: 14px;&quot;&gt;Пров.&lt;/i&gt;&lt;/font&gt;" style="text;strokeColor=none;align=left;fillColor=none;html=1;verticalAlign=middle;whiteSpace=wrap;rounded=0;movable=1;resizable=1;rotatable=1;deletable=1;editable=1;locked=0;connectable=1;" parent="1" vertex="1">
          <mxGeometry x="82" y="2250" width="60" height="20" as="geometry" />
        </mxCell>
        <mxCell id="eBoRxPN_u-8wkZOiGEBF-56" value="Помещения" style="locked=1;" parent="0" />
        <mxCell id="AZn6K3vooHAVSXWxemoX-88" value="" style="group" parent="eBoRxPN_u-8wkZOiGEBF-56" vertex="1" connectable="0">
          <mxGeometry x="140" y="1250" width="630" height="610" as="geometry" />
        </mxCell>
        <mxCell id="AZn6K3vooHAVSXWxemoX-470" value="" style="verticalLabelPosition=bottom;html=1;verticalAlign=top;align=center;shape=mxgraph.floorplan.room;fontFamily=Helvetica;fontSize=12;wallThickness=5;fillColor=#999999;" parent="AZn6K3vooHAVSXWxemoX-88" vertex="1">
          <mxGeometry x="310" y="70" width="90" height="135" as="geometry" />
        </mxCell>
        <mxCell id="AZn6K3vooHAVSXWxemoX-449" value="" style="verticalLabelPosition=bottom;html=1;verticalAlign=top;align=center;shape=mxgraph.floorplan.wall;fillColor=#999999;" parent="AZn6K3vooHAVSXWxemoX-88" vertex="1">
          <mxGeometry x="300" y="70" width="280" height="10" as="geometry" />
        </mxCell>
        <mxCell id="AZn6K3vooHAVSXWxemoX-97" value="" style="verticalLabelPosition=bottom;html=1;verticalAlign=top;align=center;shape=mxgraph.floorplan.wallU;rotation=-180;fillColor=#999999;" parent="AZn6K3vooHAVSXWxemoX-88" vertex="1">
          <mxGeometry x="90" y="320" width="260" height="250" as="geometry" />
        </mxCell>
        <mxCell id="AZn6K3vooHAVSXWxemoX-98" value="" style="verticalLabelPosition=bottom;html=1;verticalAlign=top;align=center;shape=mxgraph.floorplan.wallCorner;direction=west;fillColor=#999999;movable=1;resizable=1;rotatable=1;deletable=1;editable=1;locked=0;connectable=1;" parent="AZn6K3vooHAVSXWxemoX-88" vertex="1">
          <mxGeometry x="340" y="70" width="250" height="260" as="geometry" />
        </mxCell>
        <mxCell id="AZn6K3vooHAVSXWxemoX-100" value="" style="verticalLabelPosition=bottom;html=1;verticalAlign=top;align=center;shape=mxgraph.floorplan.window;" parent="AZn6K3vooHAVSXWxemoX-88" vertex="1">
          <mxGeometry x="440" y="70" width="80" height="10" as="geometry" />
        </mxCell>
        <mxCell id="AZn6K3vooHAVSXWxemoX-102" value="" style="verticalLabelPosition=bottom;html=1;verticalAlign=top;align=center;shape=mxgraph.floorplan.window;" parent="AZn6K3vooHAVSXWxemoX-88" vertex="1">
          <mxGeometry x="120" y="560" width="80" height="10" as="geometry" />
        </mxCell>
        <mxCell id="AZn6K3vooHAVSXWxemoX-103" value="" style="verticalLabelPosition=bottom;html=1;verticalAlign=top;align=center;shape=mxgraph.floorplan.window;rotation=90;" parent="AZn6K3vooHAVSXWxemoX-88" vertex="1">
          <mxGeometry x="35.25" y="370" width="119.5" height="10" as="geometry" />
        </mxCell>
        <mxCell id="AZn6K3vooHAVSXWxemoX-115" value="" style="verticalLabelPosition=bottom;html=1;verticalAlign=top;align=center;shape=mxgraph.floorplan.window;" parent="AZn6K3vooHAVSXWxemoX-88" vertex="1">
          <mxGeometry x="420" y="320" width="80" height="10" as="geometry" />
        </mxCell>
        <mxCell id="AZn6K3vooHAVSXWxemoX-144" value="24000" style="shape=dimension;direction=west;whiteSpace=wrap;html=1;align=center;points=[];verticalAlign=top;spacingTop=-15;labelBackgroundColor=none;" parent="AZn6K3vooHAVSXWxemoX-88" vertex="1">
          <mxGeometry x="100" width="480" height="70" as="geometry" />
        </mxCell>
        <mxCell id="AZn6K3vooHAVSXWxemoX-145" value="12000" style="shape=dimension;direction=north;whiteSpace=wrap;html=1;align=center;points=[];verticalAlign=bottom;labelBackgroundColor=none;horizontal=0;spacingBottom=3;" parent="AZn6K3vooHAVSXWxemoX-88" vertex="1">
          <mxGeometry x="590" y="80" width="40" height="240" as="geometry" />
        </mxCell>
        <mxCell id="AZn6K3vooHAVSXWxemoX-146" value="24000" style="shape=dimension;direction=south;whiteSpace=wrap;html=1;align=center;points=[];verticalAlign=top;labelBackgroundColor=none;horizontal=0;spacingTop=-15;" parent="AZn6K3vooHAVSXWxemoX-88" vertex="1">
          <mxGeometry y="80" width="90" height="480" as="geometry" />
        </mxCell>
        <mxCell id="AZn6K3vooHAVSXWxemoX-147" value="1200" style="shape=dimension;whiteSpace=wrap;html=1;align=center;points=[];verticalAlign=bottom;spacingBottom=3;labelBackgroundColor=none;" parent="AZn6K3vooHAVSXWxemoX-88" vertex="1">
          <mxGeometry x="100" y="570" width="240" height="40" as="geometry" />
        </mxCell>
        <mxCell id="AZn6K3vooHAVSXWxemoX-148" value="10000" style="shape=dimension;direction=south;whiteSpace=wrap;html=1;align=center;points=[];verticalAlign=top;labelBackgroundColor=none;horizontal=0;spacingTop=-15;" parent="AZn6K3vooHAVSXWxemoX-88" vertex="1">
          <mxGeometry x="40" y="80" width="50" height="220" as="geometry" />
        </mxCell>
        <mxCell id="AZn6K3vooHAVSXWxemoX-162" value="15000" style="shape=dimension;direction=west;whiteSpace=wrap;html=1;align=center;points=[];verticalAlign=top;spacingTop=-15;labelBackgroundColor=none;" parent="AZn6K3vooHAVSXWxemoX-88" vertex="1">
          <mxGeometry x="310" y="30" width="270" height="40" as="geometry" />
        </mxCell>
        <mxCell id="AZn6K3vooHAVSXWxemoX-203" value="" style="verticalLabelPosition=bottom;html=1;verticalAlign=top;align=center;shape=mxgraph.floorplan.wallCorner;fillColor=#999999;" parent="AZn6K3vooHAVSXWxemoX-88" vertex="1">
          <mxGeometry x="90" y="70" width="140" height="490" as="geometry" />
        </mxCell>
        <mxCell id="AZn6K3vooHAVSXWxemoX-204" value="" style="verticalLabelPosition=bottom;html=1;verticalAlign=top;align=center;shape=mxgraph.floorplan.window;rotation=90;" parent="AZn6K3vooHAVSXWxemoX-88" vertex="1">
          <mxGeometry x="304.75" y="385.25" width="80.5" height="10" as="geometry" />
        </mxCell>
        <mxCell id="AZn6K3vooHAVSXWxemoX-206" value="" style="verticalLabelPosition=bottom;html=1;verticalAlign=top;align=center;shape=mxgraph.floorplan.window;rotation=90;" parent="AZn6K3vooHAVSXWxemoX-88" vertex="1">
          <mxGeometry x="54.75" y="425.25" width="80.5" height="10" as="geometry" />
        </mxCell>
        <mxCell id="AZn6K3vooHAVSXWxemoX-448" value="" style="verticalLabelPosition=bottom;html=1;verticalAlign=top;align=center;shape=mxgraph.floorplan.doorDouble;aspect=fixed;rotation=-180;" parent="AZn6K3vooHAVSXWxemoX-88" vertex="1">
          <mxGeometry x="230" y="38" width="70" height="37.19" as="geometry" />
        </mxCell>
        <mxCell id="AZn6K3vooHAVSXWxemoX-453" value="" style="group" parent="AZn6K3vooHAVSXWxemoX-88" vertex="1" connectable="0">
          <mxGeometry x="100" y="80" width="120" height="70" as="geometry" />
        </mxCell>
        <mxCell id="AZn6K3vooHAVSXWxemoX-94" value="" style="verticalLabelPosition=bottom;html=1;verticalAlign=top;align=center;shape=mxgraph.floorplan.stairsRest;rotation=-180;" parent="AZn6K3vooHAVSXWxemoX-453" vertex="1">
          <mxGeometry width="120" height="70" as="geometry" />
        </mxCell>
        <mxCell id="AZn6K3vooHAVSXWxemoX-441" value="" style="rounded=0;whiteSpace=wrap;html=1;fillColor=none;" parent="AZn6K3vooHAVSXWxemoX-453" vertex="1">
          <mxGeometry x="56" width="51" height="70" as="geometry" />
        </mxCell>
        <mxCell id="AZn6K3vooHAVSXWxemoX-443" value="" style="rounded=0;whiteSpace=wrap;html=1;fillColor=none;" parent="AZn6K3vooHAVSXWxemoX-453" vertex="1">
          <mxGeometry x="83" width="37" height="70" as="geometry" />
        </mxCell>
        <mxCell id="AZn6K3vooHAVSXWxemoX-454" value="" style="verticalLabelPosition=bottom;html=1;verticalAlign=top;align=center;shape=mxgraph.floorplan.wallCorner;direction=south;wallThickness=5;fillColor=#999999;" parent="AZn6K3vooHAVSXWxemoX-88" vertex="1">
          <mxGeometry x="100" y="150" width="160" height="100" as="geometry" />
        </mxCell>
        <mxCell id="AZn6K3vooHAVSXWxemoX-458" value="" style="verticalLabelPosition=bottom;html=1;verticalAlign=top;align=center;shape=mxgraph.floorplan.wall;direction=south;fontFamily=Helvetica;fontSize=12;wallThickness=5;fillColor=#999999;" parent="AZn6K3vooHAVSXWxemoX-88" vertex="1">
          <mxGeometry x="175" y="155" width="10" height="91" as="geometry" />
        </mxCell>
        <mxCell id="AZn6K3vooHAVSXWxemoX-465" value="" style="verticalLabelPosition=bottom;html=1;verticalAlign=top;align=center;shape=mxgraph.floorplan.wall;fontFamily=Helvetica;fontSize=12;fillColor=#999999;wallThickness=5;" parent="AZn6K3vooHAVSXWxemoX-88" vertex="1">
          <mxGeometry x="100" y="246" width="155" height="3" as="geometry" />
        </mxCell>
        <mxCell id="AZn6K3vooHAVSXWxemoX-459" value="" style="verticalLabelPosition=bottom;html=1;verticalAlign=top;align=center;shape=mxgraph.floorplan.doorLeft;aspect=fixed;fontFamily=Helvetica;fontSize=12;" parent="AZn6K3vooHAVSXWxemoX-88" vertex="1">
          <mxGeometry x="211" y="245" width="19.76" height="21" as="geometry" />
        </mxCell>
        <mxCell id="AZn6K3vooHAVSXWxemoX-464" value="" style="verticalLabelPosition=bottom;html=1;verticalAlign=top;align=center;shape=mxgraph.floorplan.doorRight;aspect=fixed;fontFamily=Helvetica;fontSize=12;" parent="AZn6K3vooHAVSXWxemoX-88" vertex="1">
          <mxGeometry x="130" y="245" width="19.77" height="21" as="geometry" />
        </mxCell>
        <mxCell id="AZn6K3vooHAVSXWxemoX-471" value="" style="verticalLabelPosition=bottom;html=1;verticalAlign=top;align=center;shape=mxgraph.floorplan.wall;direction=south;fontFamily=Helvetica;fontSize=12;wallThickness=5;fillColor=#999999;" parent="AZn6K3vooHAVSXWxemoX-88" vertex="1">
          <mxGeometry x="310" y="200" width="5" height="96" as="geometry" />
        </mxCell>
        <mxCell id="AZn6K3vooHAVSXWxemoX-472" value="" style="verticalLabelPosition=bottom;html=1;verticalAlign=top;align=center;shape=mxgraph.floorplan.wallCorner;direction=south;fontFamily=Helvetica;fontSize=12;wallThickness=5;fillColor=#999999;" parent="AZn6K3vooHAVSXWxemoX-88" vertex="1">
          <mxGeometry x="100" y="295" width="245" height="25" as="geometry" />
        </mxCell>
        <mxCell id="AZn6K3vooHAVSXWxemoX-475" value="" style="verticalLabelPosition=bottom;html=1;verticalAlign=top;align=center;shape=mxgraph.floorplan.doorLeft;aspect=fixed;fontFamily=Helvetica;fontSize=12;" parent="AZn6K3vooHAVSXWxemoX-88" vertex="1">
          <mxGeometry x="320" y="200" width="19.76" height="21" as="geometry" />
        </mxCell>
        <mxCell id="AZn6K3vooHAVSXWxemoX-476" value="" style="verticalLabelPosition=bottom;html=1;verticalAlign=top;align=center;shape=mxgraph.floorplan.doorLeft;aspect=fixed;fontFamily=Helvetica;fontSize=12;direction=west;" parent="AZn6K3vooHAVSXWxemoX-88" vertex="1">
          <mxGeometry x="170" y="279" width="19.76" height="21" as="geometry" />
        </mxCell>
        <mxCell id="AZn6K3vooHAVSXWxemoX-479" value="" style="verticalLabelPosition=bottom;html=1;verticalAlign=top;align=center;shape=mxgraph.floorplan.window;rotation=90;" parent="AZn6K3vooHAVSXWxemoX-88" vertex="1">
          <mxGeometry x="564.71" y="265" width="40.57" height="10" as="geometry" />
        </mxCell>
        <mxCell id="AZn6K3vooHAVSXWxemoX-480" value="" style="verticalLabelPosition=bottom;html=1;verticalAlign=top;align=center;shape=mxgraph.floorplan.wall;fontFamily=Helvetica;fontSize=12;wallThickness=5;fillColor=#999999;" parent="AZn6K3vooHAVSXWxemoX-88" vertex="1">
          <mxGeometry x="400" y="200" width="180" height="5" as="geometry" />
        </mxCell>
        <mxCell id="AZn6K3vooHAVSXWxemoX-481" value="" style="verticalLabelPosition=bottom;html=1;verticalAlign=top;align=center;shape=mxgraph.floorplan.doorLeft;aspect=fixed;fontFamily=Helvetica;fontSize=12;" parent="AZn6K3vooHAVSXWxemoX-88" vertex="1">
          <mxGeometry x="470" y="200" width="19.76" height="21" as="geometry" />
        </mxCell>
        <mxCell id="AZn6K3vooHAVSXWxemoX-894" value="" style="verticalLabelPosition=bottom;html=1;verticalAlign=top;align=center;shape=mxgraph.floorplan.window;rotation=90;" parent="AZn6K3vooHAVSXWxemoX-88" vertex="1">
          <mxGeometry x="304.75" y="505" width="80.5" height="10" as="geometry" />
        </mxCell>
        <mxCell id="AZn6K3vooHAVSXWxemoX-895" value="" style="verticalLabelPosition=bottom;html=1;verticalAlign=top;align=center;shape=mxgraph.floorplan.window;" parent="AZn6K3vooHAVSXWxemoX-88" vertex="1">
          <mxGeometry x="240" y="560" width="80" height="10" as="geometry" />
        </mxCell>
        <mxCell id="AZn6K3vooHAVSXWxemoX-309" value="" style="verticalLabelPosition=bottom;html=1;verticalAlign=top;align=center;shape=mxgraph.floorplan.window;rotation=90;" parent="eBoRxPN_u-8wkZOiGEBF-56" vertex="1">
          <mxGeometry x="704.71" y="1375.16" width="40.57" height="10" as="geometry" />
        </mxCell>
        <mxCell id="AZn6K3vooHAVSXWxemoX-473" value="" style="verticalLabelPosition=bottom;html=1;verticalAlign=top;align=center;shape=mxgraph.floorplan.doorLeft;aspect=fixed;fontFamily=Helvetica;fontSize=12;direction=south;" parent="eBoRxPN_u-8wkZOiGEBF-56" vertex="1">
          <mxGeometry x="434" y="1480" width="21" height="19.76" as="geometry" />
        </mxCell>
        <mxCell id="eBoRxPN_u-8wkZOiGEBF-168" value="Сетевые" style="" parent="0" />
        <mxCell id="AZn6K3vooHAVSXWxemoX-485" value="&lt;span style=&quot;font-size: 10px;&quot;&gt;WC&lt;/span&gt;" style="ellipse;whiteSpace=wrap;html=1;aspect=fixed;" parent="eBoRxPN_u-8wkZOiGEBF-168" vertex="1">
          <mxGeometry x="270" y="1430" width="20" height="20" as="geometry" />
        </mxCell>
        <mxCell id="AZn6K3vooHAVSXWxemoX-487" value="&lt;span style=&quot;font-size: 10px;&quot;&gt;WC&lt;/span&gt;" style="ellipse;whiteSpace=wrap;html=1;aspect=fixed;" parent="eBoRxPN_u-8wkZOiGEBF-168" vertex="1">
          <mxGeometry x="350" y="1430" width="20" height="20" as="geometry" />
        </mxCell>
        <mxCell id="AZn6K3vooHAVSXWxemoX-488" value="&lt;span style=&quot;font-size: 10px;&quot;&gt;4&lt;/span&gt;" style="ellipse;whiteSpace=wrap;html=1;aspect=fixed;" parent="eBoRxPN_u-8wkZOiGEBF-168" vertex="1">
          <mxGeometry x="350" y="1710" width="20" height="20" as="geometry" />
        </mxCell>
        <mxCell id="AZn6K3vooHAVSXWxemoX-490" value="&lt;span style=&quot;font-size: 10px;&quot;&gt;2&lt;/span&gt;" style="ellipse;whiteSpace=wrap;html=1;aspect=fixed;" parent="eBoRxPN_u-8wkZOiGEBF-168" vertex="1">
          <mxGeometry x="610" y="1390" width="20" height="20" as="geometry" />
        </mxCell>
        <mxCell id="AZn6K3vooHAVSXWxemoX-491" value="&lt;span style=&quot;font-size: 10px;&quot;&gt;3&lt;/span&gt;" style="ellipse;whiteSpace=wrap;html=1;aspect=fixed;" parent="eBoRxPN_u-8wkZOiGEBF-168" vertex="1">
          <mxGeometry x="570" y="1490" width="20" height="20" as="geometry" />
        </mxCell>
        <mxCell id="AZn6K3vooHAVSXWxemoX-492" value="" style="endArrow=none;html=1;rounded=0;fontFamily=Helvetica;fontSize=12;fontColor=default;" parent="eBoRxPN_u-8wkZOiGEBF-168" edge="1">
          <mxGeometry width="50" height="50" relative="1" as="geometry">
            <mxPoint x="250" y="1600" as="sourcePoint" />
            <mxPoint x="550" y="1440" as="targetPoint" />
            <Array as="points">
              <mxPoint x="250" y="1800" />
              <mxPoint x="470" y="1800" />
              <mxPoint x="470" y="1560" />
              <mxPoint x="340" y="1560" />
              <mxPoint x="710" y="1560" />
              <mxPoint x="710" y="1340" />
              <mxPoint x="520" y="1340" />
              <mxPoint x="550" y="1340" />
              <mxPoint x="550" y="1440" />
              <mxPoint x="500" y="1440" />
            </Array>
          </mxGeometry>
        </mxCell>
        <mxCell id="AZn6K3vooHAVSXWxemoX-543" value="" style="group" parent="eBoRxPN_u-8wkZOiGEBF-168" vertex="1" connectable="0">
          <mxGeometry x="250" y="1520" width="20" height="20" as="geometry" />
        </mxCell>
        <mxCell id="AZn6K3vooHAVSXWxemoX-544" value="`" style="group" parent="AZn6K3vooHAVSXWxemoX-543" vertex="1" connectable="0">
          <mxGeometry width="20" height="20" as="geometry" />
        </mxCell>
        <mxCell id="AZn6K3vooHAVSXWxemoX-545" value="" style="rounded=0;whiteSpace=wrap;html=1;" parent="AZn6K3vooHAVSXWxemoX-544" vertex="1">
          <mxGeometry width="20" height="20" as="geometry" />
        </mxCell>
        <mxCell id="AZn6K3vooHAVSXWxemoX-546" value="" style="shape=or;whiteSpace=wrap;html=1;rotation=-180;" parent="AZn6K3vooHAVSXWxemoX-544" vertex="1">
          <mxGeometry x="7" y="5" width="5" height="10.5" as="geometry" />
        </mxCell>
        <mxCell id="AZn6K3vooHAVSXWxemoX-548" value="" style="group" parent="eBoRxPN_u-8wkZOiGEBF-168" vertex="1" connectable="0">
          <mxGeometry x="480" y="1330" width="40" height="20" as="geometry" />
        </mxCell>
        <mxCell id="AZn6K3vooHAVSXWxemoX-549" value="" style="rounded=0;whiteSpace=wrap;html=1;" parent="AZn6K3vooHAVSXWxemoX-548" vertex="1">
          <mxGeometry width="40" height="20" as="geometry" />
        </mxCell>
        <mxCell id="AZn6K3vooHAVSXWxemoX-550" value="" style="endArrow=none;dashed=1;html=1;rounded=0;entryX=1;entryY=0;entryDx=0;entryDy=0;" parent="AZn6K3vooHAVSXWxemoX-548" target="AZn6K3vooHAVSXWxemoX-549" edge="1">
          <mxGeometry width="50" height="50" relative="1" as="geometry">
            <mxPoint y="20" as="sourcePoint" />
            <mxPoint x="38.666666666666664" y="0.6666666666666666" as="targetPoint" />
          </mxGeometry>
        </mxCell>
        <mxCell id="AZn6K3vooHAVSXWxemoX-551" value="" style="endArrow=none;dashed=1;html=1;dashPattern=1 3;strokeWidth=2;rounded=0;" parent="AZn6K3vooHAVSXWxemoX-548" edge="1">
          <mxGeometry width="50" height="50" relative="1" as="geometry">
            <mxPoint x="2" y="4" as="sourcePoint" />
            <mxPoint x="20" y="4" as="targetPoint" />
          </mxGeometry>
        </mxCell>
        <mxCell id="AZn6K3vooHAVSXWxemoX-552" value="" style="endArrow=none;dashed=1;html=1;dashPattern=1 3;strokeWidth=2;rounded=0;" parent="AZn6K3vooHAVSXWxemoX-548" edge="1">
          <mxGeometry width="50" height="50" relative="1" as="geometry">
            <mxPoint x="2" y="13.333333333333332" as="sourcePoint" />
            <mxPoint x="6.666666666666666" y="13.333333333333332" as="targetPoint" />
          </mxGeometry>
        </mxCell>
        <mxCell id="AZn6K3vooHAVSXWxemoX-553" value="" style="endArrow=none;dashed=1;html=1;dashPattern=1 3;strokeWidth=2;rounded=0;" parent="AZn6K3vooHAVSXWxemoX-548" edge="1">
          <mxGeometry width="50" height="50" relative="1" as="geometry">
            <mxPoint x="2" y="8.666666666666666" as="sourcePoint" />
            <mxPoint x="14" y="8.666666666666666" as="targetPoint" />
            <Array as="points">
              <mxPoint x="6.666666666666666" y="8.666666666666666" />
            </Array>
          </mxGeometry>
        </mxCell>
        <mxCell id="AZn6K3vooHAVSXWxemoX-554" value="" style="group;rotation=90;" parent="eBoRxPN_u-8wkZOiGEBF-168" vertex="1" connectable="0">
          <mxGeometry x="710" y="1550" width="10" height="10" as="geometry" />
        </mxCell>
        <mxCell id="AZn6K3vooHAVSXWxemoX-555" value="" style="verticalLabelPosition=bottom;verticalAlign=top;html=1;shape=mxgraph.flowchart.on-page_reference;rotation=90;" parent="AZn6K3vooHAVSXWxemoX-554" vertex="1">
          <mxGeometry x="-5" width="10" height="10" as="geometry" />
        </mxCell>
        <mxCell id="AZn6K3vooHAVSXWxemoX-556" value="" style="shape=doubleArrow;direction=west;whiteSpace=wrap;html=1;arrowWidth=0.2944983818770197;arrowSize=0.11789181692097372;fillColor=#000000;rotation=90;" parent="AZn6K3vooHAVSXWxemoX-554" vertex="1">
          <mxGeometry x="-3.5" y="4" width="7" height="2" as="geometry" />
        </mxCell>
        <mxCell id="AZn6K3vooHAVSXWxemoX-560" value="" style="group" parent="eBoRxPN_u-8wkZOiGEBF-168" vertex="1" connectable="0">
          <mxGeometry x="551" y="1394" width="48" height="13" as="geometry" />
        </mxCell>
        <mxCell id="AZn6K3vooHAVSXWxemoX-561" value="2/2" style="text;html=1;strokeColor=none;fillColor=none;align=center;verticalAlign=middle;whiteSpace=wrap;rounded=0;container=0;rotation=0;" parent="AZn6K3vooHAVSXWxemoX-560" vertex="1">
          <mxGeometry x="8" width="40" height="13" as="geometry" />
        </mxCell>
        <mxCell id="AZn6K3vooHAVSXWxemoX-562" value="" style="verticalLabelPosition=bottom;verticalAlign=top;html=1;shape=mxgraph.basic.acute_triangle;dx=0.5;rotation=-90;fillColor=#000000;container=0;" parent="AZn6K3vooHAVSXWxemoX-560" vertex="1">
          <mxGeometry x="-2" y="2" width="12" height="8" as="geometry" />
        </mxCell>
        <mxCell id="AZn6K3vooHAVSXWxemoX-563" value="" style="group" parent="eBoRxPN_u-8wkZOiGEBF-168" vertex="1" connectable="0">
          <mxGeometry x="551" y="1374" width="48" height="13" as="geometry" />
        </mxCell>
        <mxCell id="AZn6K3vooHAVSXWxemoX-564" value="2/3" style="text;html=1;strokeColor=none;fillColor=none;align=center;verticalAlign=middle;whiteSpace=wrap;rounded=0;container=0;rotation=0;" parent="AZn6K3vooHAVSXWxemoX-563" vertex="1">
          <mxGeometry x="8" width="40" height="13" as="geometry" />
        </mxCell>
        <mxCell id="AZn6K3vooHAVSXWxemoX-565" value="" style="verticalLabelPosition=bottom;verticalAlign=top;html=1;shape=mxgraph.basic.acute_triangle;dx=0.5;rotation=-90;fillColor=#000000;container=0;" parent="AZn6K3vooHAVSXWxemoX-563" vertex="1">
          <mxGeometry x="-2" y="2" width="12" height="8" as="geometry" />
        </mxCell>
        <mxCell id="AZn6K3vooHAVSXWxemoX-566" value="" style="group" parent="eBoRxPN_u-8wkZOiGEBF-168" vertex="1" connectable="0">
          <mxGeometry x="551" y="1354" width="48" height="13" as="geometry" />
        </mxCell>
        <mxCell id="AZn6K3vooHAVSXWxemoX-567" value="2/4" style="text;html=1;strokeColor=none;fillColor=none;align=center;verticalAlign=middle;whiteSpace=wrap;rounded=0;container=0;rotation=0;" parent="AZn6K3vooHAVSXWxemoX-566" vertex="1">
          <mxGeometry x="8" width="40" height="13" as="geometry" />
        </mxCell>
        <mxCell id="AZn6K3vooHAVSXWxemoX-568" value="" style="verticalLabelPosition=bottom;verticalAlign=top;html=1;shape=mxgraph.basic.acute_triangle;dx=0.5;rotation=-90;fillColor=#000000;container=0;" parent="AZn6K3vooHAVSXWxemoX-566" vertex="1">
          <mxGeometry x="-2" y="2" width="12" height="8" as="geometry" />
        </mxCell>
        <mxCell id="AZn6K3vooHAVSXWxemoX-569" value="" style="endArrow=none;dashed=1;html=1;dashPattern=1 3;strokeWidth=2;rounded=0;fontFamily=Helvetica;fontSize=12;fontColor=default;" parent="eBoRxPN_u-8wkZOiGEBF-168" edge="1">
          <mxGeometry width="50" height="50" relative="1" as="geometry">
            <mxPoint x="458" y="1340" as="sourcePoint" />
            <mxPoint x="478" y="1340" as="targetPoint" />
          </mxGeometry>
        </mxCell>
        <mxCell id="AZn6K3vooHAVSXWxemoX-573" value="&lt;span style=&quot;font-size: 10px;&quot;&gt;1&lt;/span&gt;" style="ellipse;whiteSpace=wrap;html=1;aspect=fixed;" parent="eBoRxPN_u-8wkZOiGEBF-168" vertex="1">
          <mxGeometry x="490" y="1390" width="20" height="20" as="geometry" />
        </mxCell>
        <mxCell id="AZn6K3vooHAVSXWxemoX-574" value="" style="group" parent="eBoRxPN_u-8wkZOiGEBF-168" vertex="1" connectable="0">
          <mxGeometry x="551" y="1414" width="48" height="13" as="geometry" />
        </mxCell>
        <mxCell id="AZn6K3vooHAVSXWxemoX-575" value="2/1" style="text;html=1;strokeColor=none;fillColor=none;align=center;verticalAlign=middle;whiteSpace=wrap;rounded=0;container=0;rotation=0;" parent="AZn6K3vooHAVSXWxemoX-574" vertex="1">
          <mxGeometry x="8" width="40" height="13" as="geometry" />
        </mxCell>
        <mxCell id="AZn6K3vooHAVSXWxemoX-576" value="" style="verticalLabelPosition=bottom;verticalAlign=top;html=1;shape=mxgraph.basic.acute_triangle;dx=0.5;rotation=-90;fillColor=#000000;container=0;" parent="AZn6K3vooHAVSXWxemoX-574" vertex="1">
          <mxGeometry x="-2" y="2" width="12" height="8" as="geometry" />
        </mxCell>
        <mxCell id="AZn6K3vooHAVSXWxemoX-577" value="" style="endArrow=none;html=1;rounded=0;fontFamily=Helvetica;fontSize=12;fontColor=default;" parent="eBoRxPN_u-8wkZOiGEBF-168" edge="1">
          <mxGeometry width="50" height="50" relative="1" as="geometry">
            <mxPoint x="640" y="1440" as="sourcePoint" />
            <mxPoint x="710" y="1440" as="targetPoint" />
          </mxGeometry>
        </mxCell>
        <mxCell id="AZn6K3vooHAVSXWxemoX-579" value="" style="group;rotation=-90;" parent="eBoRxPN_u-8wkZOiGEBF-168" vertex="1" connectable="0">
          <mxGeometry x="496" y="1408" width="48" height="13" as="geometry" />
        </mxCell>
        <mxCell id="AZn6K3vooHAVSXWxemoX-580" value="1/1" style="text;html=1;strokeColor=none;fillColor=none;align=center;verticalAlign=middle;whiteSpace=wrap;rounded=0;container=0;rotation=-90;" parent="AZn6K3vooHAVSXWxemoX-579" vertex="1">
          <mxGeometry x="4" y="-4" width="40" height="13" as="geometry" />
        </mxCell>
        <mxCell id="AZn6K3vooHAVSXWxemoX-581" value="" style="verticalLabelPosition=bottom;verticalAlign=top;html=1;shape=mxgraph.basic.acute_triangle;dx=0.5;rotation=-180;fillColor=#000000;container=0;" parent="AZn6K3vooHAVSXWxemoX-579" vertex="1">
          <mxGeometry x="18" y="23" width="12" height="8" as="geometry" />
        </mxCell>
        <mxCell id="AZn6K3vooHAVSXWxemoX-587" value="" style="group" parent="eBoRxPN_u-8wkZOiGEBF-168" vertex="1" connectable="0">
          <mxGeometry x="593" y="1341" width="13" height="47.5" as="geometry" />
        </mxCell>
        <mxCell id="AZn6K3vooHAVSXWxemoX-588" value="2/5" style="text;html=1;strokeColor=none;fillColor=none;align=center;verticalAlign=middle;whiteSpace=wrap;rounded=0;container=0;rotation=-90;" parent="AZn6K3vooHAVSXWxemoX-587" vertex="1">
          <mxGeometry x="-13.5" y="21" width="40" height="13" as="geometry" />
        </mxCell>
        <mxCell id="AZn6K3vooHAVSXWxemoX-589" value="" style="verticalLabelPosition=bottom;verticalAlign=top;html=1;shape=mxgraph.basic.acute_triangle;dx=0.5;rotation=0;fillColor=#000000;container=0;" parent="AZn6K3vooHAVSXWxemoX-587" vertex="1">
          <mxGeometry x="0.5" width="12" height="8" as="geometry" />
        </mxCell>
        <mxCell id="AZn6K3vooHAVSXWxemoX-590" value="" style="group" parent="eBoRxPN_u-8wkZOiGEBF-168" vertex="1" connectable="0">
          <mxGeometry x="613" y="1341" width="13" height="47.5" as="geometry" />
        </mxCell>
        <mxCell id="AZn6K3vooHAVSXWxemoX-591" value="2/6" style="text;html=1;strokeColor=none;fillColor=none;align=center;verticalAlign=middle;whiteSpace=wrap;rounded=0;container=0;rotation=-90;" parent="AZn6K3vooHAVSXWxemoX-590" vertex="1">
          <mxGeometry x="-13.5" y="21" width="40" height="13" as="geometry" />
        </mxCell>
        <mxCell id="AZn6K3vooHAVSXWxemoX-592" value="" style="verticalLabelPosition=bottom;verticalAlign=top;html=1;shape=mxgraph.basic.acute_triangle;dx=0.5;rotation=0;fillColor=#000000;container=0;" parent="AZn6K3vooHAVSXWxemoX-590" vertex="1">
          <mxGeometry x="0.5" width="12" height="8" as="geometry" />
        </mxCell>
        <mxCell id="AZn6K3vooHAVSXWxemoX-593" value="" style="group" parent="eBoRxPN_u-8wkZOiGEBF-168" vertex="1" connectable="0">
          <mxGeometry x="633" y="1341" width="13" height="47.5" as="geometry" />
        </mxCell>
        <mxCell id="AZn6K3vooHAVSXWxemoX-594" value="2/7" style="text;html=1;strokeColor=none;fillColor=none;align=center;verticalAlign=middle;whiteSpace=wrap;rounded=0;container=0;rotation=-90;" parent="AZn6K3vooHAVSXWxemoX-593" vertex="1">
          <mxGeometry x="-13.5" y="21" width="40" height="13" as="geometry" />
        </mxCell>
        <mxCell id="AZn6K3vooHAVSXWxemoX-595" value="" style="verticalLabelPosition=bottom;verticalAlign=top;html=1;shape=mxgraph.basic.acute_triangle;dx=0.5;rotation=0;fillColor=#000000;container=0;" parent="AZn6K3vooHAVSXWxemoX-593" vertex="1">
          <mxGeometry x="0.5" width="12" height="8" as="geometry" />
        </mxCell>
        <mxCell id="AZn6K3vooHAVSXWxemoX-596" value="" style="group" parent="eBoRxPN_u-8wkZOiGEBF-168" vertex="1" connectable="0">
          <mxGeometry x="653" y="1341" width="13" height="47.5" as="geometry" />
        </mxCell>
        <mxCell id="AZn6K3vooHAVSXWxemoX-597" value="2/8" style="text;html=1;strokeColor=none;fillColor=none;align=center;verticalAlign=middle;whiteSpace=wrap;rounded=0;container=0;rotation=-90;" parent="AZn6K3vooHAVSXWxemoX-596" vertex="1">
          <mxGeometry x="-13.5" y="21" width="40" height="13" as="geometry" />
        </mxCell>
        <mxCell id="AZn6K3vooHAVSXWxemoX-598" value="" style="verticalLabelPosition=bottom;verticalAlign=top;html=1;shape=mxgraph.basic.acute_triangle;dx=0.5;rotation=0;fillColor=#000000;container=0;" parent="AZn6K3vooHAVSXWxemoX-596" vertex="1">
          <mxGeometry x="0.5" width="12" height="8" as="geometry" />
        </mxCell>
        <mxCell id="AZn6K3vooHAVSXWxemoX-599" value="" style="group;rotation=90;" parent="eBoRxPN_u-8wkZOiGEBF-168" vertex="1" connectable="0">
          <mxGeometry x="679" y="1385" width="13" height="47.5" as="geometry" />
        </mxCell>
        <mxCell id="AZn6K3vooHAVSXWxemoX-600" value="2/10" style="text;html=1;strokeColor=none;fillColor=none;align=center;verticalAlign=middle;whiteSpace=wrap;rounded=0;container=0;rotation=0;" parent="AZn6K3vooHAVSXWxemoX-599" vertex="1">
          <mxGeometry x="-17" y="17" width="40" height="13" as="geometry" />
        </mxCell>
        <mxCell id="AZn6K3vooHAVSXWxemoX-601" value="" style="verticalLabelPosition=bottom;verticalAlign=top;html=1;shape=mxgraph.basic.acute_triangle;dx=0.5;rotation=90;fillColor=#000000;container=0;" parent="AZn6K3vooHAVSXWxemoX-599" vertex="1">
          <mxGeometry x="20" y="20" width="12" height="8" as="geometry" />
        </mxCell>
        <mxCell id="AZn6K3vooHAVSXWxemoX-602" value="" style="group;rotation=90;" parent="eBoRxPN_u-8wkZOiGEBF-168" vertex="1" connectable="0">
          <mxGeometry x="679" y="1406" width="13" height="47.5" as="geometry" />
        </mxCell>
        <mxCell id="AZn6K3vooHAVSXWxemoX-603" value="2/11" style="text;html=1;strokeColor=none;fillColor=none;align=center;verticalAlign=middle;whiteSpace=wrap;rounded=0;container=0;rotation=0;" parent="AZn6K3vooHAVSXWxemoX-602" vertex="1">
          <mxGeometry x="-17" y="17" width="40" height="13" as="geometry" />
        </mxCell>
        <mxCell id="AZn6K3vooHAVSXWxemoX-604" value="" style="verticalLabelPosition=bottom;verticalAlign=top;html=1;shape=mxgraph.basic.acute_triangle;dx=0.5;rotation=90;fillColor=#000000;container=0;" parent="AZn6K3vooHAVSXWxemoX-602" vertex="1">
          <mxGeometry x="20" y="20" width="12" height="8" as="geometry" />
        </mxCell>
        <mxCell id="AZn6K3vooHAVSXWxemoX-611" value="" style="group;rotation=90;" parent="eBoRxPN_u-8wkZOiGEBF-168" vertex="1" connectable="0">
          <mxGeometry x="679" y="1366" width="13" height="47.5" as="geometry" />
        </mxCell>
        <mxCell id="AZn6K3vooHAVSXWxemoX-612" value="2/9" style="text;html=1;strokeColor=none;fillColor=none;align=center;verticalAlign=middle;whiteSpace=wrap;rounded=0;container=0;rotation=0;" parent="AZn6K3vooHAVSXWxemoX-611" vertex="1">
          <mxGeometry x="-17" y="17" width="40" height="13" as="geometry" />
        </mxCell>
        <mxCell id="AZn6K3vooHAVSXWxemoX-613" value="" style="verticalLabelPosition=bottom;verticalAlign=top;html=1;shape=mxgraph.basic.acute_triangle;dx=0.5;rotation=90;fillColor=#000000;container=0;" parent="AZn6K3vooHAVSXWxemoX-611" vertex="1">
          <mxGeometry x="20" y="20" width="12" height="8" as="geometry" />
        </mxCell>
        <mxCell id="AZn6K3vooHAVSXWxemoX-614" value="" style="group;rotation=-90;" parent="eBoRxPN_u-8wkZOiGEBF-168" vertex="1" connectable="0">
          <mxGeometry x="616" y="1407" width="48" height="13" as="geometry" />
        </mxCell>
        <mxCell id="AZn6K3vooHAVSXWxemoX-615" value="2/13" style="text;html=1;strokeColor=none;fillColor=none;align=center;verticalAlign=middle;whiteSpace=wrap;rounded=0;container=0;rotation=-90;" parent="AZn6K3vooHAVSXWxemoX-614" vertex="1">
          <mxGeometry x="4" y="-4" width="40" height="13" as="geometry" />
        </mxCell>
        <mxCell id="AZn6K3vooHAVSXWxemoX-616" value="" style="verticalLabelPosition=bottom;verticalAlign=top;html=1;shape=mxgraph.basic.acute_triangle;dx=0.5;rotation=-180;fillColor=#000000;container=0;" parent="AZn6K3vooHAVSXWxemoX-614" vertex="1">
          <mxGeometry x="18" y="23" width="12" height="8" as="geometry" />
        </mxCell>
        <mxCell id="AZn6K3vooHAVSXWxemoX-618" value="" style="group;rotation=-90;" parent="eBoRxPN_u-8wkZOiGEBF-168" vertex="1" connectable="0">
          <mxGeometry x="636" y="1407" width="48" height="13" as="geometry" />
        </mxCell>
        <mxCell id="AZn6K3vooHAVSXWxemoX-619" value="2/12" style="text;html=1;strokeColor=none;fillColor=none;align=center;verticalAlign=middle;whiteSpace=wrap;rounded=0;container=0;rotation=-90;" parent="AZn6K3vooHAVSXWxemoX-618" vertex="1">
          <mxGeometry x="4" y="-4" width="40" height="13" as="geometry" />
        </mxCell>
        <mxCell id="AZn6K3vooHAVSXWxemoX-620" value="" style="verticalLabelPosition=bottom;verticalAlign=top;html=1;shape=mxgraph.basic.acute_triangle;dx=0.5;rotation=-180;fillColor=#000000;container=0;" parent="AZn6K3vooHAVSXWxemoX-618" vertex="1">
          <mxGeometry x="18" y="23" width="12" height="8" as="geometry" />
        </mxCell>
        <mxCell id="AZn6K3vooHAVSXWxemoX-626" value="" style="group;rotation=90;" parent="eBoRxPN_u-8wkZOiGEBF-168" vertex="1" connectable="0">
          <mxGeometry x="679" y="1465" width="13" height="47.5" as="geometry" />
        </mxCell>
        <mxCell id="AZn6K3vooHAVSXWxemoX-627" value="3/9" style="text;html=1;strokeColor=none;fillColor=none;align=center;verticalAlign=middle;whiteSpace=wrap;rounded=0;container=0;rotation=0;" parent="AZn6K3vooHAVSXWxemoX-626" vertex="1">
          <mxGeometry x="-17" y="17" width="40" height="13" as="geometry" />
        </mxCell>
        <mxCell id="AZn6K3vooHAVSXWxemoX-628" value="" style="verticalLabelPosition=bottom;verticalAlign=top;html=1;shape=mxgraph.basic.acute_triangle;dx=0.5;rotation=90;fillColor=#000000;container=0;" parent="AZn6K3vooHAVSXWxemoX-626" vertex="1">
          <mxGeometry x="20" y="20" width="12" height="8" as="geometry" />
        </mxCell>
        <mxCell id="AZn6K3vooHAVSXWxemoX-629" value="" style="group;rotation=90;" parent="eBoRxPN_u-8wkZOiGEBF-168" vertex="1" connectable="0">
          <mxGeometry x="679" y="1486" width="13" height="47.5" as="geometry" />
        </mxCell>
        <mxCell id="AZn6K3vooHAVSXWxemoX-630" value="3/8" style="text;html=1;strokeColor=none;fillColor=none;align=center;verticalAlign=middle;whiteSpace=wrap;rounded=0;container=0;rotation=0;" parent="AZn6K3vooHAVSXWxemoX-629" vertex="1">
          <mxGeometry x="-17" y="17" width="40" height="13" as="geometry" />
        </mxCell>
        <mxCell id="AZn6K3vooHAVSXWxemoX-631" value="" style="verticalLabelPosition=bottom;verticalAlign=top;html=1;shape=mxgraph.basic.acute_triangle;dx=0.5;rotation=90;fillColor=#000000;container=0;" parent="AZn6K3vooHAVSXWxemoX-629" vertex="1">
          <mxGeometry x="20" y="20" width="12" height="8" as="geometry" />
        </mxCell>
        <mxCell id="AZn6K3vooHAVSXWxemoX-638" value="" style="group;rotation=90;" parent="eBoRxPN_u-8wkZOiGEBF-168" vertex="1" connectable="0">
          <mxGeometry x="679" y="1446" width="13" height="47.5" as="geometry" />
        </mxCell>
        <mxCell id="AZn6K3vooHAVSXWxemoX-639" value="3/10" style="text;html=1;strokeColor=none;fillColor=none;align=center;verticalAlign=middle;whiteSpace=wrap;rounded=0;container=0;rotation=0;" parent="AZn6K3vooHAVSXWxemoX-638" vertex="1">
          <mxGeometry x="-17" y="17" width="40" height="13" as="geometry" />
        </mxCell>
        <mxCell id="AZn6K3vooHAVSXWxemoX-640" value="" style="verticalLabelPosition=bottom;verticalAlign=top;html=1;shape=mxgraph.basic.acute_triangle;dx=0.5;rotation=90;fillColor=#000000;container=0;" parent="AZn6K3vooHAVSXWxemoX-638" vertex="1">
          <mxGeometry x="20" y="20" width="12" height="8" as="geometry" />
        </mxCell>
        <mxCell id="AZn6K3vooHAVSXWxemoX-653" value="" style="group;rotation=-90;" parent="eBoRxPN_u-8wkZOiGEBF-168" vertex="1" connectable="0">
          <mxGeometry x="506" y="1528" width="48" height="13" as="geometry" />
        </mxCell>
        <mxCell id="AZn6K3vooHAVSXWxemoX-654" value="3/1" style="text;html=1;strokeColor=none;fillColor=none;align=center;verticalAlign=middle;whiteSpace=wrap;rounded=0;container=0;rotation=-90;" parent="AZn6K3vooHAVSXWxemoX-653" vertex="1">
          <mxGeometry x="4" y="-4" width="40" height="13" as="geometry" />
        </mxCell>
        <mxCell id="AZn6K3vooHAVSXWxemoX-655" value="" style="verticalLabelPosition=bottom;verticalAlign=top;html=1;shape=mxgraph.basic.acute_triangle;dx=0.5;rotation=-180;fillColor=#000000;container=0;" parent="AZn6K3vooHAVSXWxemoX-653" vertex="1">
          <mxGeometry x="18" y="23" width="12" height="8" as="geometry" />
        </mxCell>
        <mxCell id="AZn6K3vooHAVSXWxemoX-656" value="" style="group;rotation=-90;" parent="eBoRxPN_u-8wkZOiGEBF-168" vertex="1" connectable="0">
          <mxGeometry x="526" y="1528" width="48" height="13" as="geometry" />
        </mxCell>
        <mxCell id="AZn6K3vooHAVSXWxemoX-657" value="3/2" style="text;html=1;strokeColor=none;fillColor=none;align=center;verticalAlign=middle;whiteSpace=wrap;rounded=0;container=0;rotation=-90;" parent="AZn6K3vooHAVSXWxemoX-656" vertex="1">
          <mxGeometry x="4" y="-4" width="40" height="13" as="geometry" />
        </mxCell>
        <mxCell id="AZn6K3vooHAVSXWxemoX-658" value="" style="verticalLabelPosition=bottom;verticalAlign=top;html=1;shape=mxgraph.basic.acute_triangle;dx=0.5;rotation=-180;fillColor=#000000;container=0;" parent="AZn6K3vooHAVSXWxemoX-656" vertex="1">
          <mxGeometry x="18" y="23" width="12" height="8" as="geometry" />
        </mxCell>
        <mxCell id="AZn6K3vooHAVSXWxemoX-659" value="" style="group;rotation=-90;" parent="eBoRxPN_u-8wkZOiGEBF-168" vertex="1" connectable="0">
          <mxGeometry x="546" y="1528" width="48" height="13" as="geometry" />
        </mxCell>
        <mxCell id="AZn6K3vooHAVSXWxemoX-660" value="3/3" style="text;html=1;strokeColor=none;fillColor=none;align=center;verticalAlign=middle;whiteSpace=wrap;rounded=0;container=0;rotation=-90;" parent="AZn6K3vooHAVSXWxemoX-659" vertex="1">
          <mxGeometry x="4" y="-4" width="40" height="13" as="geometry" />
        </mxCell>
        <mxCell id="AZn6K3vooHAVSXWxemoX-661" value="" style="verticalLabelPosition=bottom;verticalAlign=top;html=1;shape=mxgraph.basic.acute_triangle;dx=0.5;rotation=-180;fillColor=#000000;container=0;" parent="AZn6K3vooHAVSXWxemoX-659" vertex="1">
          <mxGeometry x="18" y="23" width="12" height="8" as="geometry" />
        </mxCell>
        <mxCell id="AZn6K3vooHAVSXWxemoX-662" value="" style="group;rotation=-90;" parent="eBoRxPN_u-8wkZOiGEBF-168" vertex="1" connectable="0">
          <mxGeometry x="566" y="1528" width="48" height="13" as="geometry" />
        </mxCell>
        <mxCell id="AZn6K3vooHAVSXWxemoX-663" value="3/4" style="text;html=1;strokeColor=none;fillColor=none;align=center;verticalAlign=middle;whiteSpace=wrap;rounded=0;container=0;rotation=-90;" parent="AZn6K3vooHAVSXWxemoX-662" vertex="1">
          <mxGeometry x="4" y="-4" width="40" height="13" as="geometry" />
        </mxCell>
        <mxCell id="AZn6K3vooHAVSXWxemoX-664" value="" style="verticalLabelPosition=bottom;verticalAlign=top;html=1;shape=mxgraph.basic.acute_triangle;dx=0.5;rotation=-180;fillColor=#000000;container=0;" parent="AZn6K3vooHAVSXWxemoX-662" vertex="1">
          <mxGeometry x="18" y="23" width="12" height="8" as="geometry" />
        </mxCell>
        <mxCell id="AZn6K3vooHAVSXWxemoX-671" value="" style="group;rotation=-90;" parent="eBoRxPN_u-8wkZOiGEBF-168" vertex="1" connectable="0">
          <mxGeometry x="586" y="1528" width="48" height="13" as="geometry" />
        </mxCell>
        <mxCell id="AZn6K3vooHAVSXWxemoX-672" value="3/5" style="text;html=1;strokeColor=none;fillColor=none;align=center;verticalAlign=middle;whiteSpace=wrap;rounded=0;container=0;rotation=-90;" parent="AZn6K3vooHAVSXWxemoX-671" vertex="1">
          <mxGeometry x="4" y="-4" width="40" height="13" as="geometry" />
        </mxCell>
        <mxCell id="AZn6K3vooHAVSXWxemoX-673" value="" style="verticalLabelPosition=bottom;verticalAlign=top;html=1;shape=mxgraph.basic.acute_triangle;dx=0.5;rotation=-180;fillColor=#000000;container=0;" parent="AZn6K3vooHAVSXWxemoX-671" vertex="1">
          <mxGeometry x="18" y="23" width="12" height="8" as="geometry" />
        </mxCell>
        <mxCell id="AZn6K3vooHAVSXWxemoX-674" value="" style="group;rotation=-90;" parent="eBoRxPN_u-8wkZOiGEBF-168" vertex="1" connectable="0">
          <mxGeometry x="606" y="1528" width="48" height="13" as="geometry" />
        </mxCell>
        <mxCell id="AZn6K3vooHAVSXWxemoX-675" value="3/6" style="text;html=1;strokeColor=none;fillColor=none;align=center;verticalAlign=middle;whiteSpace=wrap;rounded=0;container=0;rotation=-90;" parent="AZn6K3vooHAVSXWxemoX-674" vertex="1">
          <mxGeometry x="4" y="-4" width="40" height="13" as="geometry" />
        </mxCell>
        <mxCell id="AZn6K3vooHAVSXWxemoX-676" value="" style="verticalLabelPosition=bottom;verticalAlign=top;html=1;shape=mxgraph.basic.acute_triangle;dx=0.5;rotation=-180;fillColor=#000000;container=0;" parent="AZn6K3vooHAVSXWxemoX-674" vertex="1">
          <mxGeometry x="18" y="23" width="12" height="8" as="geometry" />
        </mxCell>
        <mxCell id="AZn6K3vooHAVSXWxemoX-677" value="" style="group;rotation=-90;" parent="eBoRxPN_u-8wkZOiGEBF-168" vertex="1" connectable="0">
          <mxGeometry x="626" y="1528" width="48" height="13" as="geometry" />
        </mxCell>
        <mxCell id="AZn6K3vooHAVSXWxemoX-678" value="3/7" style="text;html=1;strokeColor=none;fillColor=none;align=center;verticalAlign=middle;whiteSpace=wrap;rounded=0;container=0;rotation=-90;" parent="AZn6K3vooHAVSXWxemoX-677" vertex="1">
          <mxGeometry x="4" y="-4" width="40" height="13" as="geometry" />
        </mxCell>
        <mxCell id="AZn6K3vooHAVSXWxemoX-679" value="" style="verticalLabelPosition=bottom;verticalAlign=top;html=1;shape=mxgraph.basic.acute_triangle;dx=0.5;rotation=-180;fillColor=#000000;container=0;" parent="AZn6K3vooHAVSXWxemoX-677" vertex="1">
          <mxGeometry x="18" y="23" width="12" height="8" as="geometry" />
        </mxCell>
        <mxCell id="AZn6K3vooHAVSXWxemoX-681" value="" style="group;rotation=90;" parent="eBoRxPN_u-8wkZOiGEBF-168" vertex="1" connectable="0">
          <mxGeometry x="439" y="1695" width="13" height="47.5" as="geometry" />
        </mxCell>
        <mxCell id="AZn6K3vooHAVSXWxemoX-682" value="4/10" style="text;html=1;strokeColor=none;fillColor=none;align=center;verticalAlign=middle;whiteSpace=wrap;rounded=0;container=0;rotation=0;" parent="AZn6K3vooHAVSXWxemoX-681" vertex="1">
          <mxGeometry x="-17" y="17" width="40" height="13" as="geometry" />
        </mxCell>
        <mxCell id="AZn6K3vooHAVSXWxemoX-683" value="" style="verticalLabelPosition=bottom;verticalAlign=top;html=1;shape=mxgraph.basic.acute_triangle;dx=0.5;rotation=90;fillColor=#000000;container=0;" parent="AZn6K3vooHAVSXWxemoX-681" vertex="1">
          <mxGeometry x="20" y="20" width="12" height="8" as="geometry" />
        </mxCell>
        <mxCell id="AZn6K3vooHAVSXWxemoX-684" value="" style="group;rotation=90;" parent="eBoRxPN_u-8wkZOiGEBF-168" vertex="1" connectable="0">
          <mxGeometry x="439" y="1716" width="13" height="47.5" as="geometry" />
        </mxCell>
        <mxCell id="AZn6K3vooHAVSXWxemoX-685" value="4/11" style="text;html=1;strokeColor=none;fillColor=none;align=center;verticalAlign=middle;whiteSpace=wrap;rounded=0;container=0;rotation=0;" parent="AZn6K3vooHAVSXWxemoX-684" vertex="1">
          <mxGeometry x="-17" y="17" width="40" height="13" as="geometry" />
        </mxCell>
        <mxCell id="AZn6K3vooHAVSXWxemoX-686" value="" style="verticalLabelPosition=bottom;verticalAlign=top;html=1;shape=mxgraph.basic.acute_triangle;dx=0.5;rotation=90;fillColor=#000000;container=0;" parent="AZn6K3vooHAVSXWxemoX-684" vertex="1">
          <mxGeometry x="20" y="20" width="12" height="8" as="geometry" />
        </mxCell>
        <mxCell id="AZn6K3vooHAVSXWxemoX-693" value="" style="group;rotation=90;" parent="eBoRxPN_u-8wkZOiGEBF-168" vertex="1" connectable="0">
          <mxGeometry x="439" y="1676" width="13" height="47.5" as="geometry" />
        </mxCell>
        <mxCell id="AZn6K3vooHAVSXWxemoX-694" value="4/9" style="text;html=1;strokeColor=none;fillColor=none;align=center;verticalAlign=middle;whiteSpace=wrap;rounded=0;container=0;rotation=0;" parent="AZn6K3vooHAVSXWxemoX-693" vertex="1">
          <mxGeometry x="-17" y="17" width="40" height="13" as="geometry" />
        </mxCell>
        <mxCell id="AZn6K3vooHAVSXWxemoX-695" value="" style="verticalLabelPosition=bottom;verticalAlign=top;html=1;shape=mxgraph.basic.acute_triangle;dx=0.5;rotation=90;fillColor=#000000;container=0;" parent="AZn6K3vooHAVSXWxemoX-693" vertex="1">
          <mxGeometry x="20" y="20" width="12" height="8" as="geometry" />
        </mxCell>
        <mxCell id="AZn6K3vooHAVSXWxemoX-702" value="" style="group;rotation=-90;" parent="eBoRxPN_u-8wkZOiGEBF-168" vertex="1" connectable="0">
          <mxGeometry x="276" y="1768" width="48" height="13" as="geometry" />
        </mxCell>
        <mxCell id="AZn6K3vooHAVSXWxemoX-703" value="4/18" style="text;html=1;strokeColor=none;fillColor=none;align=center;verticalAlign=middle;whiteSpace=wrap;rounded=0;container=0;rotation=-90;" parent="AZn6K3vooHAVSXWxemoX-702" vertex="1">
          <mxGeometry x="4" y="-4" width="40" height="13" as="geometry" />
        </mxCell>
        <mxCell id="AZn6K3vooHAVSXWxemoX-704" value="" style="verticalLabelPosition=bottom;verticalAlign=top;html=1;shape=mxgraph.basic.acute_triangle;dx=0.5;rotation=-180;fillColor=#000000;container=0;" parent="AZn6K3vooHAVSXWxemoX-702" vertex="1">
          <mxGeometry x="18" y="23" width="12" height="8" as="geometry" />
        </mxCell>
        <mxCell id="AZn6K3vooHAVSXWxemoX-705" value="" style="group;rotation=-90;" parent="eBoRxPN_u-8wkZOiGEBF-168" vertex="1" connectable="0">
          <mxGeometry x="296" y="1768" width="48" height="13" as="geometry" />
        </mxCell>
        <mxCell id="AZn6K3vooHAVSXWxemoX-706" value="4/17" style="text;html=1;strokeColor=none;fillColor=none;align=center;verticalAlign=middle;whiteSpace=wrap;rounded=0;container=0;rotation=-90;" parent="AZn6K3vooHAVSXWxemoX-705" vertex="1">
          <mxGeometry x="4" y="-4" width="40" height="13" as="geometry" />
        </mxCell>
        <mxCell id="AZn6K3vooHAVSXWxemoX-707" value="" style="verticalLabelPosition=bottom;verticalAlign=top;html=1;shape=mxgraph.basic.acute_triangle;dx=0.5;rotation=-180;fillColor=#000000;container=0;" parent="AZn6K3vooHAVSXWxemoX-705" vertex="1">
          <mxGeometry x="18" y="23" width="12" height="8" as="geometry" />
        </mxCell>
        <mxCell id="AZn6K3vooHAVSXWxemoX-708" value="" style="group;rotation=-90;" parent="eBoRxPN_u-8wkZOiGEBF-168" vertex="1" connectable="0">
          <mxGeometry x="316" y="1768" width="48" height="13" as="geometry" />
        </mxCell>
        <mxCell id="AZn6K3vooHAVSXWxemoX-709" value="4/16" style="text;html=1;strokeColor=none;fillColor=none;align=center;verticalAlign=middle;whiteSpace=wrap;rounded=0;container=0;rotation=-90;" parent="AZn6K3vooHAVSXWxemoX-708" vertex="1">
          <mxGeometry x="4" y="-4" width="40" height="13" as="geometry" />
        </mxCell>
        <mxCell id="AZn6K3vooHAVSXWxemoX-710" value="" style="verticalLabelPosition=bottom;verticalAlign=top;html=1;shape=mxgraph.basic.acute_triangle;dx=0.5;rotation=-180;fillColor=#000000;container=0;" parent="AZn6K3vooHAVSXWxemoX-708" vertex="1">
          <mxGeometry x="18" y="23" width="12" height="8" as="geometry" />
        </mxCell>
        <mxCell id="AZn6K3vooHAVSXWxemoX-711" value="" style="group;rotation=-90;" parent="eBoRxPN_u-8wkZOiGEBF-168" vertex="1" connectable="0">
          <mxGeometry x="336" y="1768" width="48" height="13" as="geometry" />
        </mxCell>
        <mxCell id="AZn6K3vooHAVSXWxemoX-712" value="4/15" style="text;html=1;strokeColor=none;fillColor=none;align=center;verticalAlign=middle;whiteSpace=wrap;rounded=0;container=0;rotation=-90;" parent="AZn6K3vooHAVSXWxemoX-711" vertex="1">
          <mxGeometry x="4" y="-4" width="40" height="13" as="geometry" />
        </mxCell>
        <mxCell id="AZn6K3vooHAVSXWxemoX-713" value="" style="verticalLabelPosition=bottom;verticalAlign=top;html=1;shape=mxgraph.basic.acute_triangle;dx=0.5;rotation=-180;fillColor=#000000;container=0;" parent="AZn6K3vooHAVSXWxemoX-711" vertex="1">
          <mxGeometry x="18" y="23" width="12" height="8" as="geometry" />
        </mxCell>
        <mxCell id="AZn6K3vooHAVSXWxemoX-714" value="" style="group;rotation=-90;" parent="eBoRxPN_u-8wkZOiGEBF-168" vertex="1" connectable="0">
          <mxGeometry x="356" y="1768" width="48" height="13" as="geometry" />
        </mxCell>
        <mxCell id="AZn6K3vooHAVSXWxemoX-715" value="4/14" style="text;html=1;strokeColor=none;fillColor=none;align=center;verticalAlign=middle;whiteSpace=wrap;rounded=0;container=0;rotation=-90;" parent="AZn6K3vooHAVSXWxemoX-714" vertex="1">
          <mxGeometry x="4" y="-4" width="40" height="13" as="geometry" />
        </mxCell>
        <mxCell id="AZn6K3vooHAVSXWxemoX-716" value="" style="verticalLabelPosition=bottom;verticalAlign=top;html=1;shape=mxgraph.basic.acute_triangle;dx=0.5;rotation=-180;fillColor=#000000;container=0;" parent="AZn6K3vooHAVSXWxemoX-714" vertex="1">
          <mxGeometry x="18" y="23" width="12" height="8" as="geometry" />
        </mxCell>
        <mxCell id="AZn6K3vooHAVSXWxemoX-717" value="" style="group;rotation=-90;" parent="eBoRxPN_u-8wkZOiGEBF-168" vertex="1" connectable="0">
          <mxGeometry x="376" y="1768" width="48" height="13" as="geometry" />
        </mxCell>
        <mxCell id="AZn6K3vooHAVSXWxemoX-718" value="4/13" style="text;html=1;strokeColor=none;fillColor=none;align=center;verticalAlign=middle;whiteSpace=wrap;rounded=0;container=0;rotation=-90;" parent="AZn6K3vooHAVSXWxemoX-717" vertex="1">
          <mxGeometry x="4" y="-4" width="40" height="13" as="geometry" />
        </mxCell>
        <mxCell id="AZn6K3vooHAVSXWxemoX-719" value="" style="verticalLabelPosition=bottom;verticalAlign=top;html=1;shape=mxgraph.basic.acute_triangle;dx=0.5;rotation=-180;fillColor=#000000;container=0;" parent="AZn6K3vooHAVSXWxemoX-717" vertex="1">
          <mxGeometry x="18" y="23" width="12" height="8" as="geometry" />
        </mxCell>
        <mxCell id="AZn6K3vooHAVSXWxemoX-720" value="" style="group;rotation=-90;" parent="eBoRxPN_u-8wkZOiGEBF-168" vertex="1" connectable="0">
          <mxGeometry x="396" y="1768" width="48" height="13" as="geometry" />
        </mxCell>
        <mxCell id="AZn6K3vooHAVSXWxemoX-721" value="4/12" style="text;html=1;strokeColor=none;fillColor=none;align=center;verticalAlign=middle;whiteSpace=wrap;rounded=0;container=0;rotation=-90;" parent="AZn6K3vooHAVSXWxemoX-720" vertex="1">
          <mxGeometry x="4" y="-4" width="40" height="13" as="geometry" />
        </mxCell>
        <mxCell id="AZn6K3vooHAVSXWxemoX-722" value="" style="verticalLabelPosition=bottom;verticalAlign=top;html=1;shape=mxgraph.basic.acute_triangle;dx=0.5;rotation=-180;fillColor=#000000;container=0;" parent="AZn6K3vooHAVSXWxemoX-720" vertex="1">
          <mxGeometry x="18" y="23" width="12" height="8" as="geometry" />
        </mxCell>
        <mxCell id="AZn6K3vooHAVSXWxemoX-723" value="" style="group;rotation=90;" parent="eBoRxPN_u-8wkZOiGEBF-168" vertex="1" connectable="0">
          <mxGeometry x="439" y="1635" width="13" height="47.5" as="geometry" />
        </mxCell>
        <mxCell id="AZn6K3vooHAVSXWxemoX-724" value="4/7" style="text;html=1;strokeColor=none;fillColor=none;align=center;verticalAlign=middle;whiteSpace=wrap;rounded=0;container=0;rotation=0;" parent="AZn6K3vooHAVSXWxemoX-723" vertex="1">
          <mxGeometry x="-17" y="17" width="40" height="13" as="geometry" />
        </mxCell>
        <mxCell id="AZn6K3vooHAVSXWxemoX-725" value="" style="verticalLabelPosition=bottom;verticalAlign=top;html=1;shape=mxgraph.basic.acute_triangle;dx=0.5;rotation=90;fillColor=#000000;container=0;" parent="AZn6K3vooHAVSXWxemoX-723" vertex="1">
          <mxGeometry x="20" y="20" width="12" height="8" as="geometry" />
        </mxCell>
        <mxCell id="AZn6K3vooHAVSXWxemoX-726" value="" style="group;rotation=90;" parent="eBoRxPN_u-8wkZOiGEBF-168" vertex="1" connectable="0">
          <mxGeometry x="439" y="1656" width="13" height="47.5" as="geometry" />
        </mxCell>
        <mxCell id="AZn6K3vooHAVSXWxemoX-727" value="4/8" style="text;html=1;strokeColor=none;fillColor=none;align=center;verticalAlign=middle;whiteSpace=wrap;rounded=0;container=0;rotation=0;" parent="AZn6K3vooHAVSXWxemoX-726" vertex="1">
          <mxGeometry x="-17" y="17" width="40" height="13" as="geometry" />
        </mxCell>
        <mxCell id="AZn6K3vooHAVSXWxemoX-728" value="" style="verticalLabelPosition=bottom;verticalAlign=top;html=1;shape=mxgraph.basic.acute_triangle;dx=0.5;rotation=90;fillColor=#000000;container=0;" parent="AZn6K3vooHAVSXWxemoX-726" vertex="1">
          <mxGeometry x="20" y="20" width="12" height="8" as="geometry" />
        </mxCell>
        <mxCell id="AZn6K3vooHAVSXWxemoX-729" value="" style="group;rotation=90;" parent="eBoRxPN_u-8wkZOiGEBF-168" vertex="1" connectable="0">
          <mxGeometry x="439" y="1616" width="191" height="204" as="geometry" />
        </mxCell>
        <mxCell id="AZn6K3vooHAVSXWxemoX-730" value="4/6" style="text;html=1;strokeColor=none;fillColor=none;align=center;verticalAlign=middle;whiteSpace=wrap;rounded=0;container=0;rotation=0;" parent="AZn6K3vooHAVSXWxemoX-729" vertex="1">
          <mxGeometry x="-17" y="17" width="40" height="13" as="geometry" />
        </mxCell>
        <mxCell id="AZn6K3vooHAVSXWxemoX-731" value="" style="verticalLabelPosition=bottom;verticalAlign=top;html=1;shape=mxgraph.basic.acute_triangle;dx=0.5;rotation=90;fillColor=#000000;container=0;" parent="AZn6K3vooHAVSXWxemoX-729" vertex="1">
          <mxGeometry x="20" y="20" width="12" height="8" as="geometry" />
        </mxCell>
        <mxCell id="AZn6K3vooHAVSXWxemoX-735" value="" style="group;rotation=90;" parent="eBoRxPN_u-8wkZOiGEBF-168" vertex="1" connectable="0">
          <mxGeometry x="439" y="1596" width="13" height="47.5" as="geometry" />
        </mxCell>
        <mxCell id="AZn6K3vooHAVSXWxemoX-736" value="4/5" style="text;html=1;strokeColor=none;fillColor=none;align=center;verticalAlign=middle;whiteSpace=wrap;rounded=0;container=0;rotation=0;" parent="AZn6K3vooHAVSXWxemoX-735" vertex="1">
          <mxGeometry x="-17" y="17" width="40" height="13" as="geometry" />
        </mxCell>
        <mxCell id="AZn6K3vooHAVSXWxemoX-737" value="" style="verticalLabelPosition=bottom;verticalAlign=top;html=1;shape=mxgraph.basic.acute_triangle;dx=0.5;rotation=90;fillColor=#000000;container=0;" parent="AZn6K3vooHAVSXWxemoX-735" vertex="1">
          <mxGeometry x="20" y="20" width="12" height="8" as="geometry" />
        </mxCell>
        <mxCell id="AZn6K3vooHAVSXWxemoX-745" value="" style="group" parent="eBoRxPN_u-8wkZOiGEBF-168" vertex="1" connectable="0">
          <mxGeometry x="251" y="1724" width="48" height="13" as="geometry" />
        </mxCell>
        <mxCell id="AZn6K3vooHAVSXWxemoX-746" value="4/20" style="text;html=1;strokeColor=none;fillColor=none;align=center;verticalAlign=middle;whiteSpace=wrap;rounded=0;container=0;rotation=0;" parent="AZn6K3vooHAVSXWxemoX-745" vertex="1">
          <mxGeometry x="8" width="40" height="13" as="geometry" />
        </mxCell>
        <mxCell id="AZn6K3vooHAVSXWxemoX-747" value="" style="verticalLabelPosition=bottom;verticalAlign=top;html=1;shape=mxgraph.basic.acute_triangle;dx=0.5;rotation=-90;fillColor=#000000;container=0;" parent="AZn6K3vooHAVSXWxemoX-745" vertex="1">
          <mxGeometry x="-2" y="2" width="12" height="8" as="geometry" />
        </mxCell>
        <mxCell id="AZn6K3vooHAVSXWxemoX-748" value="" style="group" parent="eBoRxPN_u-8wkZOiGEBF-168" vertex="1" connectable="0">
          <mxGeometry x="251" y="1704" width="48" height="13" as="geometry" />
        </mxCell>
        <mxCell id="AZn6K3vooHAVSXWxemoX-749" value="4/21" style="text;html=1;strokeColor=none;fillColor=none;align=center;verticalAlign=middle;whiteSpace=wrap;rounded=0;container=0;rotation=0;" parent="AZn6K3vooHAVSXWxemoX-748" vertex="1">
          <mxGeometry x="8" width="40" height="13" as="geometry" />
        </mxCell>
        <mxCell id="AZn6K3vooHAVSXWxemoX-750" value="" style="verticalLabelPosition=bottom;verticalAlign=top;html=1;shape=mxgraph.basic.acute_triangle;dx=0.5;rotation=-90;fillColor=#000000;container=0;" parent="AZn6K3vooHAVSXWxemoX-748" vertex="1">
          <mxGeometry x="-2" y="2" width="12" height="8" as="geometry" />
        </mxCell>
        <mxCell id="AZn6K3vooHAVSXWxemoX-751" value="" style="group" parent="eBoRxPN_u-8wkZOiGEBF-168" vertex="1" connectable="0">
          <mxGeometry x="251" y="1684" width="48" height="13" as="geometry" />
        </mxCell>
        <mxCell id="AZn6K3vooHAVSXWxemoX-752" value="4/22" style="text;html=1;strokeColor=none;fillColor=none;align=center;verticalAlign=middle;whiteSpace=wrap;rounded=0;container=0;rotation=0;" parent="AZn6K3vooHAVSXWxemoX-751" vertex="1">
          <mxGeometry x="8" width="40" height="13" as="geometry" />
        </mxCell>
        <mxCell id="AZn6K3vooHAVSXWxemoX-753" value="" style="verticalLabelPosition=bottom;verticalAlign=top;html=1;shape=mxgraph.basic.acute_triangle;dx=0.5;rotation=-90;fillColor=#000000;container=0;" parent="AZn6K3vooHAVSXWxemoX-751" vertex="1">
          <mxGeometry x="-2" y="2" width="12" height="8" as="geometry" />
        </mxCell>
        <mxCell id="AZn6K3vooHAVSXWxemoX-754" value="" style="group" parent="eBoRxPN_u-8wkZOiGEBF-168" vertex="1" connectable="0">
          <mxGeometry x="251" y="1744" width="48" height="13" as="geometry" />
        </mxCell>
        <mxCell id="AZn6K3vooHAVSXWxemoX-755" value="4/19" style="text;html=1;strokeColor=none;fillColor=none;align=center;verticalAlign=middle;whiteSpace=wrap;rounded=0;container=0;rotation=0;" parent="AZn6K3vooHAVSXWxemoX-754" vertex="1">
          <mxGeometry x="8" width="40" height="13" as="geometry" />
        </mxCell>
        <mxCell id="AZn6K3vooHAVSXWxemoX-756" value="" style="verticalLabelPosition=bottom;verticalAlign=top;html=1;shape=mxgraph.basic.acute_triangle;dx=0.5;rotation=-90;fillColor=#000000;container=0;" parent="AZn6K3vooHAVSXWxemoX-754" vertex="1">
          <mxGeometry x="-2" y="2" width="12" height="8" as="geometry" />
        </mxCell>
        <mxCell id="AZn6K3vooHAVSXWxemoX-757" value="" style="group" parent="eBoRxPN_u-8wkZOiGEBF-168" vertex="1" connectable="0">
          <mxGeometry x="251" y="1644" width="48" height="13" as="geometry" />
        </mxCell>
        <mxCell id="AZn6K3vooHAVSXWxemoX-758" value="4/24" style="text;html=1;strokeColor=none;fillColor=none;align=center;verticalAlign=middle;whiteSpace=wrap;rounded=0;container=0;rotation=0;" parent="AZn6K3vooHAVSXWxemoX-757" vertex="1">
          <mxGeometry x="8" width="40" height="13" as="geometry" />
        </mxCell>
        <mxCell id="AZn6K3vooHAVSXWxemoX-759" value="" style="verticalLabelPosition=bottom;verticalAlign=top;html=1;shape=mxgraph.basic.acute_triangle;dx=0.5;rotation=-90;fillColor=#000000;container=0;" parent="AZn6K3vooHAVSXWxemoX-757" vertex="1">
          <mxGeometry x="-2" y="2" width="12" height="8" as="geometry" />
        </mxCell>
        <mxCell id="AZn6K3vooHAVSXWxemoX-760" value="" style="group" parent="eBoRxPN_u-8wkZOiGEBF-168" vertex="1" connectable="0">
          <mxGeometry x="251" y="1624" width="48" height="13" as="geometry" />
        </mxCell>
        <mxCell id="AZn6K3vooHAVSXWxemoX-761" value="4/25" style="text;html=1;strokeColor=none;fillColor=none;align=center;verticalAlign=middle;whiteSpace=wrap;rounded=0;container=0;rotation=0;" parent="AZn6K3vooHAVSXWxemoX-760" vertex="1">
          <mxGeometry x="8" width="40" height="13" as="geometry" />
        </mxCell>
        <mxCell id="AZn6K3vooHAVSXWxemoX-762" value="" style="verticalLabelPosition=bottom;verticalAlign=top;html=1;shape=mxgraph.basic.acute_triangle;dx=0.5;rotation=-90;fillColor=#000000;container=0;" parent="AZn6K3vooHAVSXWxemoX-760" vertex="1">
          <mxGeometry x="-2" y="2" width="12" height="8" as="geometry" />
        </mxCell>
        <mxCell id="AZn6K3vooHAVSXWxemoX-763" value="" style="group" parent="eBoRxPN_u-8wkZOiGEBF-168" vertex="1" connectable="0">
          <mxGeometry x="251" y="1604" width="48" height="13" as="geometry" />
        </mxCell>
        <mxCell id="AZn6K3vooHAVSXWxemoX-764" value="4/26" style="text;html=1;strokeColor=none;fillColor=none;align=center;verticalAlign=middle;whiteSpace=wrap;rounded=0;container=0;rotation=0;" parent="AZn6K3vooHAVSXWxemoX-763" vertex="1">
          <mxGeometry x="8" width="40" height="13" as="geometry" />
        </mxCell>
        <mxCell id="AZn6K3vooHAVSXWxemoX-765" value="" style="verticalLabelPosition=bottom;verticalAlign=top;html=1;shape=mxgraph.basic.acute_triangle;dx=0.5;rotation=-90;fillColor=#000000;container=0;" parent="AZn6K3vooHAVSXWxemoX-763" vertex="1">
          <mxGeometry x="-2" y="2" width="12" height="8" as="geometry" />
        </mxCell>
        <mxCell id="AZn6K3vooHAVSXWxemoX-766" value="" style="group" parent="eBoRxPN_u-8wkZOiGEBF-168" vertex="1" connectable="0">
          <mxGeometry x="251" y="1664" width="48" height="13" as="geometry" />
        </mxCell>
        <mxCell id="AZn6K3vooHAVSXWxemoX-767" value="4/23" style="text;html=1;strokeColor=none;fillColor=none;align=center;verticalAlign=middle;whiteSpace=wrap;rounded=0;container=0;rotation=0;" parent="AZn6K3vooHAVSXWxemoX-766" vertex="1">
          <mxGeometry x="8" width="40" height="13" as="geometry" />
        </mxCell>
        <mxCell id="AZn6K3vooHAVSXWxemoX-768" value="" style="verticalLabelPosition=bottom;verticalAlign=top;html=1;shape=mxgraph.basic.acute_triangle;dx=0.5;rotation=-90;fillColor=#000000;container=0;" parent="AZn6K3vooHAVSXWxemoX-766" vertex="1">
          <mxGeometry x="-2" y="2" width="12" height="8" as="geometry" />
        </mxCell>
        <mxCell id="AZn6K3vooHAVSXWxemoX-781" value="4/1" style="text;html=1;strokeColor=none;fillColor=none;align=center;verticalAlign=middle;whiteSpace=wrap;rounded=0;container=0;rotation=-90;" parent="eBoRxPN_u-8wkZOiGEBF-168" vertex="1">
          <mxGeometry x="340" y="1582" width="40" height="13" as="geometry" />
        </mxCell>
        <mxCell id="AZn6K3vooHAVSXWxemoX-782" value="" style="verticalLabelPosition=bottom;verticalAlign=top;html=1;shape=mxgraph.basic.acute_triangle;dx=0.5;rotation=0;fillColor=#000000;container=0;" parent="eBoRxPN_u-8wkZOiGEBF-168" vertex="1">
          <mxGeometry x="354" y="1561" width="12" height="8" as="geometry" />
        </mxCell>
        <mxCell id="AZn6K3vooHAVSXWxemoX-783" value="4/2" style="text;html=1;strokeColor=none;fillColor=none;align=center;verticalAlign=middle;whiteSpace=wrap;rounded=0;container=0;rotation=-90;" parent="eBoRxPN_u-8wkZOiGEBF-168" vertex="1">
          <mxGeometry x="360" y="1582" width="40" height="13" as="geometry" />
        </mxCell>
        <mxCell id="AZn6K3vooHAVSXWxemoX-784" value="" style="verticalLabelPosition=bottom;verticalAlign=top;html=1;shape=mxgraph.basic.acute_triangle;dx=0.5;rotation=0;fillColor=#000000;container=0;" parent="eBoRxPN_u-8wkZOiGEBF-168" vertex="1">
          <mxGeometry x="374" y="1561" width="12" height="8" as="geometry" />
        </mxCell>
        <mxCell id="AZn6K3vooHAVSXWxemoX-785" value="4/3" style="text;html=1;strokeColor=none;fillColor=none;align=center;verticalAlign=middle;whiteSpace=wrap;rounded=0;container=0;rotation=-90;" parent="eBoRxPN_u-8wkZOiGEBF-168" vertex="1">
          <mxGeometry x="380" y="1582" width="40" height="13" as="geometry" />
        </mxCell>
        <mxCell id="AZn6K3vooHAVSXWxemoX-786" value="" style="verticalLabelPosition=bottom;verticalAlign=top;html=1;shape=mxgraph.basic.acute_triangle;dx=0.5;rotation=0;fillColor=#000000;container=0;" parent="eBoRxPN_u-8wkZOiGEBF-168" vertex="1">
          <mxGeometry x="394" y="1561" width="12" height="8" as="geometry" />
        </mxCell>
        <mxCell id="AZn6K3vooHAVSXWxemoX-787" value="4/4" style="text;html=1;strokeColor=none;fillColor=none;align=center;verticalAlign=middle;whiteSpace=wrap;rounded=0;container=0;rotation=-90;" parent="eBoRxPN_u-8wkZOiGEBF-168" vertex="1">
          <mxGeometry x="400" y="1582" width="40" height="13" as="geometry" />
        </mxCell>
        <mxCell id="AZn6K3vooHAVSXWxemoX-788" value="" style="verticalLabelPosition=bottom;verticalAlign=top;html=1;shape=mxgraph.basic.acute_triangle;dx=0.5;rotation=0;fillColor=#000000;container=0;" parent="eBoRxPN_u-8wkZOiGEBF-168" vertex="1">
          <mxGeometry x="414" y="1561" width="12" height="8" as="geometry" />
        </mxCell>
        <mxCell id="AZn6K3vooHAVSXWxemoX-801" value="" style="group" parent="eBoRxPN_u-8wkZOiGEBF-168" vertex="1" connectable="0">
          <mxGeometry x="380" y="1380" width="20" height="20" as="geometry" />
        </mxCell>
        <mxCell id="AZn6K3vooHAVSXWxemoX-802" value="`" style="group" parent="AZn6K3vooHAVSXWxemoX-801" vertex="1" connectable="0">
          <mxGeometry width="20" height="20" as="geometry" />
        </mxCell>
        <mxCell id="AZn6K3vooHAVSXWxemoX-803" value="" style="rounded=0;whiteSpace=wrap;html=1;" parent="AZn6K3vooHAVSXWxemoX-802" vertex="1">
          <mxGeometry width="20" height="20" as="geometry" />
        </mxCell>
        <mxCell id="AZn6K3vooHAVSXWxemoX-804" value="" style="shape=or;whiteSpace=wrap;html=1;rotation=-180;" parent="AZn6K3vooHAVSXWxemoX-802" vertex="1">
          <mxGeometry x="7" y="5" width="5" height="10.5" as="geometry" />
        </mxCell>
        <mxCell id="AZn6K3vooHAVSXWxemoX-805" value="" style="group" parent="eBoRxPN_u-8wkZOiGEBF-168" vertex="1" connectable="0">
          <mxGeometry x="680" y="1530" width="20" height="20" as="geometry" />
        </mxCell>
        <mxCell id="AZn6K3vooHAVSXWxemoX-806" value="`" style="group" parent="AZn6K3vooHAVSXWxemoX-805" vertex="1" connectable="0">
          <mxGeometry width="20" height="20" as="geometry" />
        </mxCell>
        <mxCell id="AZn6K3vooHAVSXWxemoX-807" value="" style="rounded=0;whiteSpace=wrap;html=1;" parent="AZn6K3vooHAVSXWxemoX-806" vertex="1">
          <mxGeometry width="20" height="20" as="geometry" />
        </mxCell>
        <mxCell id="AZn6K3vooHAVSXWxemoX-808" value="" style="shape=or;whiteSpace=wrap;html=1;rotation=-180;" parent="AZn6K3vooHAVSXWxemoX-806" vertex="1">
          <mxGeometry x="7" y="5" width="5" height="10.5" as="geometry" />
        </mxCell>
        <mxCell id="AZn6K3vooHAVSXWxemoX-809" value="" style="group" parent="eBoRxPN_u-8wkZOiGEBF-168" vertex="1" connectable="0">
          <mxGeometry x="440" y="1770" width="20" height="20" as="geometry" />
        </mxCell>
        <mxCell id="AZn6K3vooHAVSXWxemoX-810" value="`" style="group" parent="AZn6K3vooHAVSXWxemoX-809" vertex="1" connectable="0">
          <mxGeometry width="20" height="20" as="geometry" />
        </mxCell>
        <mxCell id="AZn6K3vooHAVSXWxemoX-811" value="" style="rounded=0;whiteSpace=wrap;html=1;" parent="AZn6K3vooHAVSXWxemoX-810" vertex="1">
          <mxGeometry width="20" height="20" as="geometry" />
        </mxCell>
        <mxCell id="AZn6K3vooHAVSXWxemoX-812" value="" style="shape=or;whiteSpace=wrap;html=1;rotation=-180;" parent="AZn6K3vooHAVSXWxemoX-810" vertex="1">
          <mxGeometry x="7" y="5" width="5" height="10.5" as="geometry" />
        </mxCell>
        <mxCell id="AZn6K3vooHAVSXWxemoX-816" value="" style="group;rotation=90;" parent="eBoRxPN_u-8wkZOiGEBF-168" vertex="1" connectable="0">
          <mxGeometry x="470" y="1790" width="10" height="10" as="geometry" />
        </mxCell>
        <mxCell id="AZn6K3vooHAVSXWxemoX-817" value="" style="verticalLabelPosition=bottom;verticalAlign=top;html=1;shape=mxgraph.flowchart.on-page_reference;rotation=90;" parent="AZn6K3vooHAVSXWxemoX-816" vertex="1">
          <mxGeometry x="-5" width="10" height="10" as="geometry" />
        </mxCell>
        <mxCell id="AZn6K3vooHAVSXWxemoX-818" value="" style="shape=doubleArrow;direction=west;whiteSpace=wrap;html=1;arrowWidth=0.2944983818770197;arrowSize=0.11789181692097372;fillColor=#000000;rotation=90;" parent="AZn6K3vooHAVSXWxemoX-816" vertex="1">
          <mxGeometry x="-3.5" y="4" width="7" height="2" as="geometry" />
        </mxCell>
        <mxCell id="AZn6K3vooHAVSXWxemoX-820" value="" style="endArrow=none;dashed=1;html=1;rounded=0;fontFamily=Helvetica;fontSize=12;fontColor=default;entryX=1;entryY=0.5;entryDx=0;entryDy=0;entryPerimeter=0;exitX=1;exitY=0.5;exitDx=0;exitDy=0;" parent="eBoRxPN_u-8wkZOiGEBF-168" source="AZn6K3vooHAVSXWxemoX-803" target="AZn6K3vooHAVSXWxemoX-834" edge="1">
          <mxGeometry width="50" height="50" relative="1" as="geometry">
            <mxPoint x="420" y="1470" as="sourcePoint" />
            <mxPoint x="470" y="1420" as="targetPoint" />
            <Array as="points">
              <mxPoint x="410" y="1390" />
              <mxPoint x="410" y="1440" />
            </Array>
          </mxGeometry>
        </mxCell>
        <mxCell id="AZn6K3vooHAVSXWxemoX-822" value="" style="group" parent="eBoRxPN_u-8wkZOiGEBF-168" vertex="1" connectable="0">
          <mxGeometry x="680" y="1350" width="20" height="20" as="geometry" />
        </mxCell>
        <mxCell id="AZn6K3vooHAVSXWxemoX-823" value="`" style="group" parent="AZn6K3vooHAVSXWxemoX-822" vertex="1" connectable="0">
          <mxGeometry width="20" height="20" as="geometry" />
        </mxCell>
        <mxCell id="AZn6K3vooHAVSXWxemoX-824" value="" style="rounded=0;whiteSpace=wrap;html=1;" parent="AZn6K3vooHAVSXWxemoX-823" vertex="1">
          <mxGeometry width="20" height="20" as="geometry" />
        </mxCell>
        <mxCell id="AZn6K3vooHAVSXWxemoX-825" value="" style="shape=or;whiteSpace=wrap;html=1;rotation=-180;" parent="AZn6K3vooHAVSXWxemoX-823" vertex="1">
          <mxGeometry x="7" y="5" width="5" height="10.5" as="geometry" />
        </mxCell>
        <mxCell id="AZn6K3vooHAVSXWxemoX-828" value="" style="group;rotation=90;" parent="eBoRxPN_u-8wkZOiGEBF-168" vertex="1" connectable="0">
          <mxGeometry x="710" y="1340" width="10" height="10" as="geometry" />
        </mxCell>
        <mxCell id="AZn6K3vooHAVSXWxemoX-829" value="" style="verticalLabelPosition=bottom;verticalAlign=top;html=1;shape=mxgraph.flowchart.on-page_reference;rotation=90;" parent="AZn6K3vooHAVSXWxemoX-828" vertex="1">
          <mxGeometry x="-5" width="10" height="10" as="geometry" />
        </mxCell>
        <mxCell id="AZn6K3vooHAVSXWxemoX-830" value="" style="shape=doubleArrow;direction=west;whiteSpace=wrap;html=1;arrowWidth=0.2944983818770197;arrowSize=0.11789181692097372;fillColor=#000000;rotation=90;" parent="AZn6K3vooHAVSXWxemoX-828" vertex="1">
          <mxGeometry x="-3.5" y="4" width="7" height="2" as="geometry" />
        </mxCell>
        <mxCell id="AZn6K3vooHAVSXWxemoX-833" value="" style="group;rotation=90;" parent="eBoRxPN_u-8wkZOiGEBF-168" vertex="1" connectable="0">
          <mxGeometry x="500" y="1430" width="10" height="10" as="geometry" />
        </mxCell>
        <mxCell id="AZn6K3vooHAVSXWxemoX-834" value="" style="verticalLabelPosition=bottom;verticalAlign=top;html=1;shape=mxgraph.flowchart.on-page_reference;rotation=90;" parent="AZn6K3vooHAVSXWxemoX-833" vertex="1">
          <mxGeometry x="-5" width="10" height="10" as="geometry" />
        </mxCell>
        <mxCell id="AZn6K3vooHAVSXWxemoX-835" value="" style="shape=doubleArrow;direction=west;whiteSpace=wrap;html=1;arrowWidth=0.2944983818770197;arrowSize=0.11789181692097372;fillColor=#000000;rotation=90;" parent="AZn6K3vooHAVSXWxemoX-833" vertex="1">
          <mxGeometry x="-3.5" y="4" width="7" height="2" as="geometry" />
        </mxCell>
        <mxCell id="AZn6K3vooHAVSXWxemoX-836" value="" style="group;rotation=90;" parent="eBoRxPN_u-8wkZOiGEBF-168" vertex="1" connectable="0">
          <mxGeometry x="340" y="1560" width="10" height="10" as="geometry" />
        </mxCell>
        <mxCell id="AZn6K3vooHAVSXWxemoX-837" value="" style="verticalLabelPosition=bottom;verticalAlign=top;html=1;shape=mxgraph.flowchart.on-page_reference;rotation=90;" parent="AZn6K3vooHAVSXWxemoX-836" vertex="1">
          <mxGeometry x="-5" width="10" height="10" as="geometry" />
        </mxCell>
        <mxCell id="AZn6K3vooHAVSXWxemoX-838" value="" style="shape=doubleArrow;direction=west;whiteSpace=wrap;html=1;arrowWidth=0.2944983818770197;arrowSize=0.11789181692097372;fillColor=#000000;rotation=90;" parent="AZn6K3vooHAVSXWxemoX-836" vertex="1">
          <mxGeometry x="-3.5" y="4" width="7" height="2" as="geometry" />
        </mxCell>
        <mxCell id="AZn6K3vooHAVSXWxemoX-839" value="" style="endArrow=none;dashed=1;html=1;rounded=0;fontFamily=Helvetica;fontSize=12;fontColor=default;entryX=1;entryY=0.5;entryDx=0;entryDy=0;" parent="eBoRxPN_u-8wkZOiGEBF-168" target="AZn6K3vooHAVSXWxemoX-545" edge="1">
          <mxGeometry width="50" height="50" relative="1" as="geometry">
            <mxPoint x="340" y="1560" as="sourcePoint" />
            <mxPoint x="340" y="1530" as="targetPoint" />
            <Array as="points">
              <mxPoint x="340" y="1530" />
            </Array>
          </mxGeometry>
        </mxCell>
        <mxCell id="AZn6K3vooHAVSXWxemoX-840" value="" style="endArrow=none;dashed=1;html=1;rounded=0;fontFamily=Helvetica;fontSize=12;fontColor=default;entryX=1;entryY=0.5;entryDx=0;entryDy=0;" parent="eBoRxPN_u-8wkZOiGEBF-168" target="AZn6K3vooHAVSXWxemoX-807" edge="1">
          <mxGeometry width="50" height="50" relative="1" as="geometry">
            <mxPoint x="710" y="1550" as="sourcePoint" />
            <mxPoint x="760" y="1500" as="targetPoint" />
            <Array as="points">
              <mxPoint x="710" y="1540" />
            </Array>
          </mxGeometry>
        </mxCell>
        <mxCell id="AZn6K3vooHAVSXWxemoX-841" value="" style="endArrow=none;dashed=1;html=1;rounded=0;fontFamily=Helvetica;fontSize=12;fontColor=default;" parent="eBoRxPN_u-8wkZOiGEBF-168" edge="1">
          <mxGeometry width="50" height="50" relative="1" as="geometry">
            <mxPoint x="700" y="1360" as="sourcePoint" />
            <mxPoint x="710" y="1350" as="targetPoint" />
            <Array as="points">
              <mxPoint x="710" y="1360" />
            </Array>
          </mxGeometry>
        </mxCell>
        <mxCell id="AZn6K3vooHAVSXWxemoX-842" value="" style="endArrow=none;dashed=1;html=1;rounded=0;fontFamily=Helvetica;fontSize=12;fontColor=default;entryX=1;entryY=0.5;entryDx=0;entryDy=0;" parent="eBoRxPN_u-8wkZOiGEBF-168" target="AZn6K3vooHAVSXWxemoX-811" edge="1">
          <mxGeometry width="50" height="50" relative="1" as="geometry">
            <mxPoint x="470" y="1790" as="sourcePoint" />
            <mxPoint x="520" y="1740" as="targetPoint" />
            <Array as="points">
              <mxPoint x="470" y="1780" />
            </Array>
          </mxGeometry>
        </mxCell>
        <mxCell id="AZn6K3vooHAVSXWxemoX-870" value="" style="group" parent="eBoRxPN_u-8wkZOiGEBF-168" vertex="1" connectable="0">
          <mxGeometry x="350" y="1670" width="20" height="20" as="geometry" />
        </mxCell>
        <mxCell id="AZn6K3vooHAVSXWxemoX-871" value="" style="group;rotation=90;" parent="AZn6K3vooHAVSXWxemoX-870" vertex="1" connectable="0">
          <mxGeometry width="20" height="20" as="geometry" />
        </mxCell>
        <mxCell id="AZn6K3vooHAVSXWxemoX-872" value="" style="verticalLabelPosition=bottom;verticalAlign=top;html=1;shape=mxgraph.flowchart.on-page_reference;rotation=90;" parent="AZn6K3vooHAVSXWxemoX-871" vertex="1">
          <mxGeometry width="20" height="20" as="geometry" />
        </mxCell>
        <mxCell id="AZn6K3vooHAVSXWxemoX-873" value="" style="ellipse;whiteSpace=wrap;html=1;aspect=fixed;align=center;verticalAlign=top;fontFamily=Helvetica;fontSize=12;" parent="AZn6K3vooHAVSXWxemoX-870" vertex="1">
          <mxGeometry x="5" y="5" width="10" height="10" as="geometry" />
        </mxCell>
        <mxCell id="AZn6K3vooHAVSXWxemoX-875" value="" style="group" parent="eBoRxPN_u-8wkZOiGEBF-168" vertex="1" connectable="0">
          <mxGeometry x="590" y="1430" width="20" height="20" as="geometry" />
        </mxCell>
        <mxCell id="AZn6K3vooHAVSXWxemoX-876" value="" style="group;rotation=90;" parent="AZn6K3vooHAVSXWxemoX-875" vertex="1" connectable="0">
          <mxGeometry width="20" height="20" as="geometry" />
        </mxCell>
        <mxCell id="AZn6K3vooHAVSXWxemoX-877" value="" style="verticalLabelPosition=bottom;verticalAlign=top;html=1;shape=mxgraph.flowchart.on-page_reference;rotation=90;" parent="AZn6K3vooHAVSXWxemoX-876" vertex="1">
          <mxGeometry width="20" height="20" as="geometry" />
        </mxCell>
        <mxCell id="AZn6K3vooHAVSXWxemoX-878" value="" style="ellipse;whiteSpace=wrap;html=1;aspect=fixed;align=center;verticalAlign=top;fontFamily=Helvetica;fontSize=12;" parent="AZn6K3vooHAVSXWxemoX-875" vertex="1">
          <mxGeometry x="5" y="5" width="10" height="10" as="geometry" />
        </mxCell>
        <mxCell id="AZn6K3vooHAVSXWxemoX-883" value="" style="endArrow=none;dashed=1;html=1;rounded=0;fontFamily=Helvetica;fontSize=12;fontColor=default;entryX=1;entryY=0.5;entryDx=0;entryDy=0;entryPerimeter=0;exitX=0.5;exitY=1;exitDx=0;exitDy=0;exitPerimeter=0;" parent="eBoRxPN_u-8wkZOiGEBF-168" source="AZn6K3vooHAVSXWxemoX-872" target="AZn6K3vooHAVSXWxemoX-837" edge="1">
          <mxGeometry width="50" height="50" relative="1" as="geometry">
            <mxPoint x="330" y="1680" as="sourcePoint" />
            <mxPoint x="380" y="1630" as="targetPoint" />
            <Array as="points">
              <mxPoint x="340" y="1680" />
            </Array>
          </mxGeometry>
        </mxCell>
        <mxCell id="AZn6K3vooHAVSXWxemoX-889" value="" style="group;rotation=90;" parent="eBoRxPN_u-8wkZOiGEBF-168" vertex="1" connectable="0">
          <mxGeometry x="550" y="1430" width="10" height="10" as="geometry" />
        </mxCell>
        <mxCell id="AZn6K3vooHAVSXWxemoX-890" value="" style="verticalLabelPosition=bottom;verticalAlign=top;html=1;shape=mxgraph.flowchart.on-page_reference;rotation=90;" parent="AZn6K3vooHAVSXWxemoX-889" vertex="1">
          <mxGeometry x="-5" width="10" height="10" as="geometry" />
        </mxCell>
        <mxCell id="AZn6K3vooHAVSXWxemoX-891" value="" style="shape=doubleArrow;direction=west;whiteSpace=wrap;html=1;arrowWidth=0.2944983818770197;arrowSize=0.11789181692097372;fillColor=#000000;rotation=90;" parent="AZn6K3vooHAVSXWxemoX-889" vertex="1">
          <mxGeometry x="-3.5" y="4" width="7" height="2" as="geometry" />
        </mxCell>
        <mxCell id="AZn6K3vooHAVSXWxemoX-892" value="" style="endArrow=none;dashed=1;html=1;rounded=0;fontFamily=Helvetica;fontSize=12;fontColor=default;entryX=1;entryY=0.5;entryDx=0;entryDy=0;entryPerimeter=0;exitX=0.5;exitY=1;exitDx=0;exitDy=0;exitPerimeter=0;" parent="eBoRxPN_u-8wkZOiGEBF-168" source="AZn6K3vooHAVSXWxemoX-877" target="AZn6K3vooHAVSXWxemoX-890" edge="1">
          <mxGeometry width="50" height="50" relative="1" as="geometry">
            <mxPoint x="540" y="1520" as="sourcePoint" />
            <mxPoint x="590" y="1470" as="targetPoint" />
          </mxGeometry>
        </mxCell>
        <mxCell id="eBoRxPN_u-8wkZOiGEBF-374" value="Обозначения" style="locked=1;" parent="0" />
        <mxCell id="AZn6K3vooHAVSXWxemoX-405" value="" style="group" parent="eBoRxPN_u-8wkZOiGEBF-374" vertex="1" connectable="0">
          <mxGeometry x="190" y="1890" width="300" height="190" as="geometry" />
        </mxCell>
        <mxCell id="AZn6K3vooHAVSXWxemoX-406" value="" style="endArrow=none;dashed=1;html=1;rounded=0;" parent="AZn6K3vooHAVSXWxemoX-405" edge="1">
          <mxGeometry width="50" height="50" relative="1" as="geometry">
            <mxPoint x="1" y="55" as="sourcePoint" />
            <mxPoint x="61" y="55" as="targetPoint" />
          </mxGeometry>
        </mxCell>
        <mxCell id="AZn6K3vooHAVSXWxemoX-407" value="" style="endArrow=none;dashed=1;html=1;dashPattern=1 3;strokeWidth=2;rounded=0;" parent="AZn6K3vooHAVSXWxemoX-405" edge="1">
          <mxGeometry width="50" height="50" relative="1" as="geometry">
            <mxPoint x="2" y="106" as="sourcePoint" />
            <mxPoint x="62" y="106" as="targetPoint" />
          </mxGeometry>
        </mxCell>
        <mxCell id="AZn6K3vooHAVSXWxemoX-408" value="" style="endArrow=none;html=1;rounded=0;" parent="AZn6K3vooHAVSXWxemoX-405" edge="1">
          <mxGeometry width="50" height="50" relative="1" as="geometry">
            <mxPoint y="156" as="sourcePoint" />
            <mxPoint x="60" y="156" as="targetPoint" />
          </mxGeometry>
        </mxCell>
        <mxCell id="AZn6K3vooHAVSXWxemoX-409" value="UTP кабель кат. 6 над потолком" style="text;html=1;align=center;verticalAlign=middle;resizable=0;points=[];autosize=1;strokeColor=none;fillColor=none;fontFamily=Arial;fontStyle=2;fontSize=14;" parent="AZn6K3vooHAVSXWxemoX-405" vertex="1">
          <mxGeometry x="60" y="40" width="240" height="30" as="geometry" />
        </mxCell>
        <mxCell id="AZn6K3vooHAVSXWxemoX-410" value="&lt;font face=&quot;Arial&quot; style=&quot;font-size: 14px;&quot;&gt;Коаксиальный кабель RG-8&lt;/font&gt;" style="text;html=1;align=center;verticalAlign=middle;resizable=0;points=[];autosize=1;strokeColor=none;fillColor=none;fontFamily=Arial;fontStyle=2;fontSize=14;" parent="AZn6K3vooHAVSXWxemoX-405" vertex="1">
          <mxGeometry x="60" y="90" width="200" height="30" as="geometry" />
        </mxCell>
        <mxCell id="AZn6K3vooHAVSXWxemoX-411" value="UTP кабель кат. 6, в коробе,&lt;br&gt;&amp;nbsp;ниже уровня подоконников" style="text;html=1;align=center;verticalAlign=middle;resizable=0;points=[];autosize=1;strokeColor=none;fillColor=none;fontFamily=Arial;fontStyle=2;fontSize=14;" parent="AZn6K3vooHAVSXWxemoX-405" vertex="1">
          <mxGeometry x="60" y="140" width="210" height="50" as="geometry" />
        </mxCell>
        <mxCell id="AZn6K3vooHAVSXWxemoX-412" value="&lt;font face=&quot;Arial&quot; style=&quot;font-size: 14px;&quot;&gt;Соединения&lt;/font&gt;" style="text;html=1;align=center;verticalAlign=middle;resizable=0;points=[];autosize=1;strokeColor=none;fillColor=none;fontFamily=Arial;fontStyle=2;fontSize=14;" parent="AZn6K3vooHAVSXWxemoX-405" vertex="1">
          <mxGeometry x="65" width="100" height="30" as="geometry" />
        </mxCell>
        <mxCell id="AZn6K3vooHAVSXWxemoX-413" value="" style="group" parent="eBoRxPN_u-8wkZOiGEBF-374" vertex="1" connectable="0">
          <mxGeometry x="520" y="1830" width="280" height="300" as="geometry" />
        </mxCell>
        <mxCell id="AZn6K3vooHAVSXWxemoX-418" value="" style="group" parent="AZn6K3vooHAVSXWxemoX-413" vertex="1" connectable="0">
          <mxGeometry y="102" width="60" height="30" as="geometry" />
        </mxCell>
        <mxCell id="AZn6K3vooHAVSXWxemoX-419" value="" style="rounded=0;whiteSpace=wrap;html=1;" parent="AZn6K3vooHAVSXWxemoX-418" vertex="1">
          <mxGeometry width="60" height="30" as="geometry" />
        </mxCell>
        <mxCell id="AZn6K3vooHAVSXWxemoX-420" value="" style="endArrow=none;dashed=1;html=1;rounded=0;entryX=1;entryY=0;entryDx=0;entryDy=0;" parent="AZn6K3vooHAVSXWxemoX-418" target="AZn6K3vooHAVSXWxemoX-419" edge="1">
          <mxGeometry width="50" height="50" relative="1" as="geometry">
            <mxPoint y="30" as="sourcePoint" />
            <mxPoint x="58" y="1" as="targetPoint" />
          </mxGeometry>
        </mxCell>
        <mxCell id="AZn6K3vooHAVSXWxemoX-421" value="" style="endArrow=none;dashed=1;html=1;dashPattern=1 3;strokeWidth=2;rounded=0;" parent="AZn6K3vooHAVSXWxemoX-418" edge="1">
          <mxGeometry width="50" height="50" relative="1" as="geometry">
            <mxPoint x="3" y="6" as="sourcePoint" />
            <mxPoint x="30" y="6" as="targetPoint" />
          </mxGeometry>
        </mxCell>
        <mxCell id="AZn6K3vooHAVSXWxemoX-422" value="" style="endArrow=none;dashed=1;html=1;dashPattern=1 3;strokeWidth=2;rounded=0;" parent="AZn6K3vooHAVSXWxemoX-418" edge="1">
          <mxGeometry width="50" height="50" relative="1" as="geometry">
            <mxPoint x="3" y="20" as="sourcePoint" />
            <mxPoint x="10" y="20" as="targetPoint" />
          </mxGeometry>
        </mxCell>
        <mxCell id="AZn6K3vooHAVSXWxemoX-423" value="" style="endArrow=none;dashed=1;html=1;dashPattern=1 3;strokeWidth=2;rounded=0;" parent="AZn6K3vooHAVSXWxemoX-418" edge="1">
          <mxGeometry width="50" height="50" relative="1" as="geometry">
            <mxPoint x="3" y="13" as="sourcePoint" />
            <mxPoint x="21" y="13" as="targetPoint" />
            <Array as="points">
              <mxPoint x="10" y="13" />
            </Array>
          </mxGeometry>
        </mxCell>
        <mxCell id="AZn6K3vooHAVSXWxemoX-429" value="" style="group;rotation=90;" parent="AZn6K3vooHAVSXWxemoX-413" vertex="1" connectable="0">
          <mxGeometry y="157" width="20" height="20" as="geometry" />
        </mxCell>
        <mxCell id="AZn6K3vooHAVSXWxemoX-430" value="" style="verticalLabelPosition=bottom;verticalAlign=top;html=1;shape=mxgraph.flowchart.on-page_reference;rotation=90;" parent="AZn6K3vooHAVSXWxemoX-429" vertex="1">
          <mxGeometry width="20" height="20" as="geometry" />
        </mxCell>
        <mxCell id="AZn6K3vooHAVSXWxemoX-431" value="" style="shape=doubleArrow;direction=west;whiteSpace=wrap;html=1;arrowWidth=0.2944983818770197;arrowSize=0.11789181692097372;fillColor=#000000;rotation=90;" parent="AZn6K3vooHAVSXWxemoX-429" vertex="1">
          <mxGeometry x="3" y="8" width="14" height="4" as="geometry" />
        </mxCell>
        <mxCell id="AZn6K3vooHAVSXWxemoX-432" value="" style="group" parent="AZn6K3vooHAVSXWxemoX-413" vertex="1" connectable="0">
          <mxGeometry y="212" width="48" height="13" as="geometry" />
        </mxCell>
        <mxCell id="AZn6K3vooHAVSXWxemoX-433" value="x/x" style="text;html=1;strokeColor=none;fillColor=none;align=center;verticalAlign=middle;whiteSpace=wrap;rounded=0;container=0;rotation=0;" parent="AZn6K3vooHAVSXWxemoX-432" vertex="1">
          <mxGeometry x="8" width="40" height="13" as="geometry" />
        </mxCell>
        <mxCell id="AZn6K3vooHAVSXWxemoX-434" value="" style="verticalLabelPosition=bottom;verticalAlign=top;html=1;shape=mxgraph.basic.acute_triangle;dx=0.5;rotation=-90;fillColor=#000000;container=0;" parent="AZn6K3vooHAVSXWxemoX-432" vertex="1">
          <mxGeometry x="-2" y="2" width="12" height="8" as="geometry" />
        </mxCell>
        <mxCell id="AZn6K3vooHAVSXWxemoX-435" value="&lt;font face=&quot;Arial&quot; style=&quot;font-size: 14px;&quot;&gt;Условные обозначения&lt;/font&gt;" style="text;html=1;align=center;verticalAlign=middle;resizable=0;points=[];autosize=1;strokeColor=none;fillColor=none;fontFamily=Arial;fontStyle=2;fontSize=14;" parent="AZn6K3vooHAVSXWxemoX-413" vertex="1">
          <mxGeometry x="20" width="170" height="30" as="geometry" />
        </mxCell>
        <mxCell id="AZn6K3vooHAVSXWxemoX-437" value="&lt;font face=&quot;Arial&quot; style=&quot;font-size: 14px;&quot;&gt;Телекоммуникационный шкаф&lt;/font&gt;" style="text;html=1;align=center;verticalAlign=middle;resizable=0;points=[];autosize=1;strokeColor=none;fillColor=none;fontFamily=Arial;fontStyle=2;fontSize=14;" parent="AZn6K3vooHAVSXWxemoX-413" vertex="1">
          <mxGeometry x="60" y="102" width="220" height="30" as="geometry" />
        </mxCell>
        <mxCell id="AZn6K3vooHAVSXWxemoX-438" value="&lt;font face=&quot;Arial&quot; style=&quot;font-size: 14px;&quot;&gt;IP-камера&lt;/font&gt;" style="text;html=1;align=center;verticalAlign=middle;resizable=0;points=[];autosize=1;strokeColor=none;fillColor=none;fontFamily=Arial;fontStyle=2;fontSize=14;" parent="AZn6K3vooHAVSXWxemoX-413" vertex="1">
          <mxGeometry x="60" y="52" width="90" height="30" as="geometry" />
        </mxCell>
        <mxCell id="AZn6K3vooHAVSXWxemoX-439" value="Перехрод между уровнями" style="text;html=1;align=center;verticalAlign=middle;resizable=0;points=[];autosize=1;strokeColor=none;fillColor=none;fontFamily=Arial;fontStyle=2;fontSize=14;" parent="AZn6K3vooHAVSXWxemoX-413" vertex="1">
          <mxGeometry x="60" y="152" width="200" height="30" as="geometry" />
        </mxCell>
        <mxCell id="AZn6K3vooHAVSXWxemoX-440" value="Розетка RJ -45,&lt;br&gt;№ комнаты/№ розетки&amp;nbsp;" style="text;html=1;align=left;verticalAlign=middle;resizable=0;points=[];autosize=1;strokeColor=none;fillColor=none;fontFamily=Arial;fontStyle=2;fontSize=14;" parent="AZn6K3vooHAVSXWxemoX-413" vertex="1">
          <mxGeometry x="70" y="192" width="190" height="50" as="geometry" />
        </mxCell>
        <mxCell id="AZn6K3vooHAVSXWxemoX-850" value="" style="group" parent="AZn6K3vooHAVSXWxemoX-413" vertex="1" connectable="0">
          <mxGeometry y="50" width="30" height="30" as="geometry" />
        </mxCell>
        <mxCell id="AZn6K3vooHAVSXWxemoX-851" value="`" style="group" parent="AZn6K3vooHAVSXWxemoX-850" vertex="1" connectable="0">
          <mxGeometry width="30" height="30" as="geometry" />
        </mxCell>
        <mxCell id="AZn6K3vooHAVSXWxemoX-852" value="" style="rounded=0;whiteSpace=wrap;html=1;" parent="AZn6K3vooHAVSXWxemoX-851" vertex="1">
          <mxGeometry width="30" height="30" as="geometry" />
        </mxCell>
        <mxCell id="AZn6K3vooHAVSXWxemoX-853" value="" style="shape=or;whiteSpace=wrap;html=1;rotation=-180;" parent="AZn6K3vooHAVSXWxemoX-851" vertex="1">
          <mxGeometry x="10.5" y="7.5" width="7.5" height="15.75" as="geometry" />
        </mxCell>
        <mxCell id="AZn6K3vooHAVSXWxemoX-857" value="Точка доступа" style="text;html=1;align=center;verticalAlign=middle;resizable=0;points=[];autosize=1;strokeColor=none;fillColor=none;fontFamily=Arial;fontStyle=2;fontSize=14;" parent="AZn6K3vooHAVSXWxemoX-413" vertex="1">
          <mxGeometry x="59" y="244" width="120" height="30" as="geometry" />
        </mxCell>
        <mxCell id="AZn6K3vooHAVSXWxemoX-866" value="" style="group" parent="AZn6K3vooHAVSXWxemoX-413" vertex="1" connectable="0">
          <mxGeometry y="250" width="20" height="20" as="geometry" />
        </mxCell>
        <mxCell id="AZn6K3vooHAVSXWxemoX-867" value="" style="group;rotation=90;" parent="AZn6K3vooHAVSXWxemoX-866" vertex="1" connectable="0">
          <mxGeometry width="20" height="20" as="geometry" />
        </mxCell>
        <mxCell id="AZn6K3vooHAVSXWxemoX-868" value="" style="verticalLabelPosition=bottom;verticalAlign=top;html=1;shape=mxgraph.flowchart.on-page_reference;rotation=90;" parent="AZn6K3vooHAVSXWxemoX-867" vertex="1">
          <mxGeometry width="20" height="20" as="geometry" />
        </mxCell>
        <mxCell id="AZn6K3vooHAVSXWxemoX-869" value="" style="ellipse;whiteSpace=wrap;html=1;aspect=fixed;align=center;verticalAlign=top;fontFamily=Helvetica;fontSize=12;" parent="AZn6K3vooHAVSXWxemoX-866" vertex="1">
          <mxGeometry x="5" y="5" width="10" height="10" as="geometry" />
        </mxCell>
      </root>
    </mxGraphModel>
  </diagram>
</mxfile>
